<svg width="28" height="28" viewBox="0 0 28 28" fill="none" xmlns="http://www.w3.org/2000/svg">
<rect width="28" height="28" rx="6" fill="#D2ECFB"/>
<path d="M13.5312 19.1562C12.7552 19.1562 12.0547 19.013 11.4297 18.7266C10.8099 18.4401 10.3203 18.0443 9.96094 17.5391C9.60677 17.0286 9.42188 16.4531 9.40625 15.8125H11.6875C11.7031 16.1042 11.7943 16.362 11.9609 16.5859C12.1276 16.8099 12.349 16.9844 12.625 17.1094C12.901 17.2344 13.2031 17.2969 13.5312 17.2969C13.9167 17.2969 14.2604 17.2135 14.5625 17.0469C14.8698 16.875 15.1068 16.638 15.2734 16.3359C15.4453 16.0286 15.5312 15.6823 15.5312 15.2969C15.5312 14.901 15.4453 14.5495 15.2734 14.2422C15.1016 13.9349 14.8594 13.6953 14.5469 13.5234C14.2396 13.3464 13.8906 13.2552 13.5 13.25C12.651 13.25 12.0573 13.5677 11.7188 14.2031H9.59375L10.2031 7.6875H17.1719V9.60938H12.1406L11.8281 12.4688H11.9219C12.1354 12.1823 12.4427 11.9531 12.8438 11.7812C13.25 11.6042 13.6979 11.5156 14.1875 11.5156C14.875 11.5156 15.4922 11.6745 16.0391 11.9922C16.5911 12.3099 17.0234 12.7526 17.3359 13.3203C17.6536 13.8828 17.8125 14.5208 17.8125 15.2344C17.8125 15.9896 17.6328 16.6641 17.2734 17.2578C16.9141 17.8516 16.4089 18.3177 15.7578 18.6562C15.112 18.9896 14.3698 19.1562 13.5312 19.1562Z" fill="#43B0EF"/>
</svg>
