<svg width="28" height="28" viewBox="0 0 28 28" fill="none" xmlns="http://www.w3.org/2000/svg">
<rect width="28" height="28" rx="6" fill="#FFE7C2"/>
<path d="M9.99219 17.2969L14.0547 13.5625C14.4557 13.1771 14.7656 12.8568 14.9844 12.6016C15.2083 12.3464 15.3802 12.0938 15.5 11.8438C15.6198 11.5885 15.6797 11.3177 15.6797 11.0312C15.6797 10.7031 15.6016 10.4167 15.4453 10.1719C15.2943 9.92708 15.0807 9.73958 14.8047 9.60938C14.5339 9.47396 14.2266 9.40625 13.8828 9.40625C13.3516 9.40625 12.9271 9.5651 12.6094 9.88281C12.2917 10.1953 12.1328 10.6198 12.1328 11.1562H9.89844C9.89323 10.4271 10.0573 9.78906 10.3906 9.24219C10.7292 8.69531 11.2031 8.27344 11.8125 7.97656C12.4219 7.67969 13.1224 7.53125 13.9141 7.53125C14.7109 7.53125 15.4141 7.67448 16.0234 7.96094C16.6328 8.24219 17.1042 8.63542 17.4375 9.14062C17.776 9.64583 17.9453 10.224 17.9453 10.875C17.9453 11.3177 17.8594 11.7448 17.6875 12.1562C17.5156 12.5625 17.2161 13.0182 16.7891 13.5234C16.3672 14.0234 15.7682 14.625 14.9922 15.3281L13.2734 17V17.0625H18.1016V19H10.0078L9.99219 17.2969Z" fill="#FF9900"/>
</svg>
