<svg width="443" height="310" viewBox="0 0 443 310" fill="none" xmlns="http://www.w3.org/2000/svg">
<path d="M86.1143 13C96.7063 17.5899 105.777 22.6702 112.957 32.1141C120.613 42.1826 130.536 59.2818 126.327 72.64C122.825 83.7542 108.287 89.123 97.8125 89.7696C86.9711 90.4388 85.8932 75.5471 88.2032 67.8876C91.8477 55.8035 107.056 52.1662 118.075 51.7504C135.56 51.0906 146.324 61.0252 156.669 73.8934C168.042 88.0398 178.949 103.65 185.967 120.477C192.657 136.518 194.918 153.952 197.978 170.926" stroke="#231F20" stroke-width="24.0439" stroke-linecap="round"/>
<path d="M322.068 14.8801C304.802 18.5003 287.988 26.2426 271.985 33.6286C271.153 34.0124 271.348 33.975 272.455 34.7775C275.123 36.712 279.815 39.3893 282.221 40.7833C292.055 46.4802 302.316 51.5819 311.832 57.8084C313.878 59.1468 318.06 62.8024 320.71 60.7329C325.827 56.7377 326.199 44.6233 326.611 38.851C327.222 30.3012 326.768 21.5653 326.768 13" stroke="#F05E68" stroke-width="24.0439" stroke-linecap="round"/>
<path d="M164.137 255.529C160.044 255.125 154.549 253.97 150.872 256.573C146.11 259.944 146.361 268.215 146.955 273.233C148.425 285.644 161.547 290.108 172.702 288.534C179.642 287.556 191.938 277.119 186.593 269.003C182.348 262.555 173.678 257.248 166.226 255.529C160.583 254.226 158.638 254.404 157.609 260.751C156.729 266.174 156.048 274.043 164.241 272.763C169.779 271.897 173.577 262.838 166.017 263.31C163.623 263.46 161.738 265.291 161.578 267.697C161.299 271.879 166.168 271.128 168.837 271.509" stroke="#15B2B2" stroke-width="24.0439" stroke-linecap="round"/>
<path d="M227.896 191.794C258.895 204.844 291.574 222.58 294.741 260.402C294.915 262.478 294.672 270.394 292.656 272.815C288.507 277.798 275.48 274.058 271.284 273.151C253.964 269.407 231.16 261.523 229.56 240.431C226.577 201.096 292.247 226.43 307.411 235.676C321.984 244.562 334.464 255.943 341.734 271.551C343.955 276.318 345.565 281.473 347.553 286.277" stroke="#F05E68" stroke-width="24.0439" stroke-linecap="round"/>
<path d="M122.776 164.346C88.6055 166.448 54.1781 173.901 20.7296 181.005C17.295 181.735 17.4672 181.713 14.9849 182.572C14.3128 182.805 12.9741 182.645 13.0004 183.355C13.0592 184.942 14.2916 186.264 15.0894 187.638C19.0206 194.406 23.3426 200.938 27.4665 207.587C30.807 212.974 33.6247 218.473 36.6057 224.038C38.4259 227.436 53.6507 214.298 53.8397 214.168C75.0249 199.552 95.7963 183.845 115.255 167.166" stroke="#FE920C" stroke-width="24.0439" stroke-linecap="round"/>
<path d="M227.893 146.181C240.094 137.277 260.025 134.115 274.581 134.065C286.594 134.023 299.818 136.704 305.08 149.105C308.72 157.684 306.268 167.678 299.805 174.016C282.439 191.048 280.683 155.682 284.66 145.972C293.668 123.979 329.625 121.259 347.016 134.013C358.898 142.726 363.202 161.991 360.855 175.949C360.456 178.326 357.798 185.372 354.536 180.44C350.349 174.108 351.894 163.546 353.857 156.939C359.654 137.432 378.888 115.704 401.486 123.62C419.543 129.945 425.457 147.522 430 164.041" stroke="#14B2B3" stroke-width="24.0439" stroke-linecap="round"/>
<path d="M185.479 35.1089C181.79 35.1089 178.157 36.3109 174.729 37.6038C166.035 40.8829 157.397 44.7042 149.564 49.7396C141.806 54.7265 136.486 63.2076 132.808 71.424C128.658 80.6925 125.081 90.3111 123.998 100.47C122.907 110.712 122.589 121.204 123.66 131.456C124.81 142.476 127.057 153.349 128.372 164.353C129.408 173.02 131.425 181.343 134.04 189.672C136.809 198.493 140.047 207.191 145.436 214.759C148.581 219.176 152.456 222.958 155.801 227.203C159.199 231.515 162.997 235.663 167.244 239.154C177.358 247.471 189.962 254.304 202.573 257.836C210.64 260.094 218.905 261.126 227.23 261.886C236.305 262.715 245.306 263.257 254.413 263.257C261.556 263.257 268.598 262.737 275.697 261.994C283.85 261.14 292.16 260.232 300.23 258.821C307.471 257.556 314.486 255.595 321.483 253.416C326.997 251.698 332.709 250.482 338.147 248.549C341.888 247.219 345.789 246.259 349.513 244.945C350.035 244.761 353.043 244.164 351.623 243.42C349.344 242.227 347.327 240.22 345.647 238.307C341.843 233.977 339.099 228.76 336.099 223.861C332.936 218.697 329.301 213.304 327.751 207.382C324.538 195.102 320.513 183.131 316.694 171.037C314.578 164.336 312.546 157.527 310.841 150.707C309.139 143.897 306.418 137.314 303.295 131.025C300.342 125.079 296.741 119.54 293.9 113.53C292.553 110.678 290.92 107.961 289.434 105.183C287.982 102.468 286.956 99.5043 285.815 96.6506C283.21 90.1383 279.766 83.5461 275.974 77.6613C272.289 71.9429 268.128 66.1466 262.837 61.7677C258.137 57.8784 253.511 53.6404 248.268 50.4943C245.634 48.9143 243.145 47.1246 240.46 45.6276C237.387 43.9148 234.268 42.4513 231.327 40.5145C228.835 38.8734 226.351 37.7184 223.503 36.8029C220.644 35.884 217.577 35.8846 214.617 35.5247C209.4 34.8902 204.365 34 199.077 34C197.343 34 195.685 34.1344 193.964 34.2618C192.998 34.3334 191.935 34.1064 191.007 34.4312C189.434 34.9819 187.557 34.6937 186.31 35.9405M181.043 134.075C179.098 132.526 177.829 134.823 177.024 136.708C174.498 142.624 174.768 149.318 176.762 155.359C178.845 161.669 183.258 166.506 187.974 170.944M184.647 101.363C180.79 102.763 178.345 104.967 175.822 108.34C167.423 119.571 166.638 133.404 167.413 146.95C167.861 154.772 168.656 163.666 172.388 170.79C172.813 171.602 174.526 173.767 175.468 174.486C177.603 176.117 175.101 173.92 176.331 174.271M152.767 93.6013C149.939 97.561 148.922 102.038 147.947 106.8C145.782 117.376 145.46 127.773 147.238 138.418C148.237 144.398 149.752 150.271 151.72 156.005C152.512 158.311 153.94 162.001 155.077 164.26C158.538 171.131 154.787 163.215 158.034 168.726M141.679 100.809C137.717 106.334 138.075 114.543 138.121 121.03C138.193 131.136 139.541 141.282 141.74 151.139C143.092 157.198 144.692 163.292 146.822 169.127C148.169 172.815 149.501 176.078 151.104 179.676C151.762 181.153 152.422 182.631 153.168 184.066C154.655 186.926 155.971 189.461 157.132 191.698M157.132 191.698C171.079 218.586 162.486 202.436 157.132 191.698ZM157.132 191.698C154.474 186.367 152.614 182.37 154.708 185.637M145.56 138.233C144.358 143.638 145.1 149.431 145.991 154.835C147.624 164.745 150.992 174.881 155.355 183.927C158.607 190.672 163.026 196.739 167.829 202.454C168.069 202.739 169.949 205.053 170.786 205.581C171.591 206.088 171.319 204.097 171.341 203.933M147.223 165.954C146.487 166.575 146.227 166.728 146.268 167.818C146.4 171.343 147.223 175.131 148.209 178.491C150.797 187.316 156.806 195.224 162.347 202.423C166.981 208.445 173.113 212.139 179.595 215.945C182.025 217.372 185.677 219.967 188.251 220.288M159.42 188.686C159.113 189.032 159.109 189.4 159.143 189.856C159.618 196.183 161.448 202.413 164.903 207.752C168.888 213.91 174.01 220.232 179.842 224.755C183.787 227.815 188.371 229.877 192.963 231.654M172.727 169.281C174.8 173.723 177.524 177.774 180.289 181.817C185.12 188.884 190.236 195.737 196.167 201.931C200.632 206.593 205.532 210.934 210.721 214.775C211.656 215.467 212.609 216.137 213.601 216.746C216.159 218.318 217.949 219.423 219.145 220.163M219.145 220.163C222.463 222.217 221.213 221.473 219.145 220.163ZM219.145 220.163C216.561 218.527 212.699 216.01 214.863 216.962M165.519 187.023C161.379 190.335 161.146 196.707 161.53 201.592C161.678 203.475 161.917 204.403 162.346 206.043C162.592 206.98 162.47 206.094 162.47 205.873M154.431 195.339C154.561 197.549 155.215 199.331 155.817 201.438M139.184 113.838C139.519 105.711 140.842 95.44 145.406 88.4727C147.096 85.8921 149.081 83.5415 151.19 81.2955M151.19 81.2955C151.23 81.2533 151.27 81.2111 151.309 81.169M151.19 81.2955C151.218 81.2843 151.26 81.2382 151.309 81.169M151.19 81.2955C151.159 81.308 151.143 81.2775 151.15 81.1881C151.227 80.1957 151.46 79.1557 151.72 78.2004C152.892 73.8852 156.226 70.5361 159.359 67.5122C163.898 63.1304 170.068 60.1577 175.776 57.5633M151.309 81.169C154.081 78.2291 157.062 75.4651 159.867 72.5945C162.668 69.7286 165.223 66.74 168.338 64.1856C173.006 60.356 177.932 59.4399 183.631 58.2255C185.462 57.8352 186.911 56.7319 188.312 55.5458C189.619 54.4401 188.847 54.2178 187.234 54.0211C183.983 53.6245 181.104 54.8957 178.333 56.4544C174.419 58.6558 170.358 60.7618 166.628 63.2616C160.281 67.5155 155.925 73.5554 151.997 79.9869C151.831 80.2596 151.505 80.8953 151.309 81.169ZM186.31 51.7419C186.31 49.3178 190.077 48.6937 191.978 48.1381C198.742 46.1604 204.888 48.4895 210.767 51.6495C218.921 56.0321 226.823 60.1769 233.406 66.8039C238.354 71.7857 242.884 77.2032 247.19 82.7437C247.725 83.4326 249.158 85.8125 250.07 86.1165M230.11 58.3949C230.391 58.6762 230.658 58.9147 231.003 59.1187C236.388 62.3005 241.588 66.2196 246.035 70.6077C257.11 81.5378 264.138 96.3263 270.584 110.234M247.02 76.4139C251.735 84.3052 257.146 91.7711 262.051 99.5459C267.098 107.544 271.807 115.758 276.651 123.879C279.973 129.447 283.093 135.107 285.522 141.128C286.012 142.342 287.043 145.121 287.37 146.58C289.011 153.896 286.929 144.618 287.216 148.213M264.762 91.6607C273.936 104.321 281.204 118.543 287.463 132.843C291.233 141.456 294.417 150.393 297.227 159.363C297.722 160.942 298.85 164.578 299.044 166.632C299.312 169.463 298.825 166.391 298.582 168.172M165.796 104.135C166.505 102.223 168.24 100.349 169.4 98.8375C176.796 89.204 184.557 79.8377 193.518 71.6088C195.365 69.9131 197.253 68.137 199.509 66.9886C202.848 65.2885 205.701 69.0297 204.914 72.3789C204.155 75.6123 201.134 79.322 199.278 81.7734C194.453 88.144 196.398 85.0384 192.101 91.1987C191.663 91.827 188.922 95.9553 188.343 97.1126C187.375 99.0485 191.874 94.5956 193.502 93.17C198.836 88.501 201.946 85.9253 207.594 81.3114C209.862 79.4591 212.142 77.6225 214.432 75.7979L214.443 75.789C215.712 74.7776 216.982 73.7659 218.282 72.7947C218.684 72.4947 219.082 71.7865 219.545 71.9785C219.93 72.138 219.144 72.7095 218.914 73.0565C218.373 73.8705 217.815 74.6726 217.235 75.4591C212.814 81.4567 208.083 87.2204 203.559 93.1392C201.938 95.2601 200.265 97.3451 198.754 99.5459C198.058 100.56 196.662 101.57 196.952 102.765C197.155 103.601 198.569 102.109 199.247 101.579C201.546 99.7819 203.659 97.7586 205.838 95.8189C212.384 89.995 214.754 87.6352 221.208 82.1122C222.711 80.8268 224.232 79.5609 225.798 78.3544C228.496 76.276 226.368 78.4548 225.736 79.0936C217.953 86.9615 209.829 94.4898 202.543 102.842C201.485 104.054 200.339 105.226 199.555 106.63C199.426 106.861 200.102 106.957 200.325 106.815C207.154 102.471 213.249 96.4143 219.514 91.3219C222.042 89.2673 224.561 87.2009 227.138 85.2078C228.798 83.9233 223.956 87.9477 222.394 89.3506C216.886 94.2992 212.649 98.2478 207.225 103.473C204.675 105.929 202.093 108.353 199.647 110.912C196.92 113.766 194.41 116.519 199.771 113.068C202.388 111.383 218.095 100.088 219.822 98.8683C222.739 96.8096 225.658 94.7525 228.616 92.7542C230.919 91.1989 233.053 89.0331 235.778 88.4881C236.692 88.3053 234.723 90.0422 234.053 90.6905C232.233 92.451 230.324 94.1203 228.447 95.8189M180.212 135.183C195.899 125.734 210.397 114.28 225.582 104.043C227.849 102.515 229.958 100.851 232.174 99.2687C232.979 98.6934 231.006 100.868 230.387 101.64M190.191 162.35C191.43 161.662 192.55 160.447 193.533 159.548C206.579 147.615 219.468 135.224 234.022 125.111C237.503 122.693 241.047 120.341 244.541 117.934C246.73 116.427 249.049 114.803 251.456 114.115M197.399 179.261C197.369 180.187 197.239 180.043 198.723 178.953C200.534 177.623 208.127 171.441 208.857 170.852C221.58 160.577 234.215 150.235 246.681 139.65C251.746 135.349 256.752 130.703 262.282 126.975C262.649 126.728 263.839 125.901 264.392 125.712C264.951 125.521 264.129 126.866 263.93 127.422M210.151 190.626C210.151 191.19 210.117 190.818 211.26 190.01C215.394 187.089 219.498 184.106 223.565 181.093C234.993 172.627 245.885 163.456 257 154.589C263.487 149.413 269.941 144.179 276.513 139.111C277.521 138.334 277.845 138.102 278.854 137.401C279.094 137.235 279.339 137.076 279.578 136.908C279.702 136.821 279.07 137.231 279.177 137.124M212.646 202.824C213.392 206.554 222.764 198.611 223.534 198.065C236.285 189.036 248.816 179.668 261.281 170.251C266.904 166.003 272.396 161.539 278.161 157.484C278.996 156.896 282.113 154.954 279.732 156.806M221.517 222.506C221.883 222.831 222.179 222.852 222.595 222.537C225.556 220.294 228.352 217.694 231.157 215.283C239.336 208.255 247.517 201.241 255.891 194.446C265.102 186.971 274.422 179.626 283.905 172.5L284.18 172.293C286.794 170.329 289.411 168.362 292.083 166.478C292.615 166.103 293.905 164.709 294.147 165.677M321.591 235.535C319.563 233.507 317.843 231.18 316.016 228.975C312.751 225.034 309.597 221.066 306.729 216.823C306.032 215.792 305.028 214.226 304.234 213.204C303.337 212.048 303.123 212.297 302.186 211.695M332.402 237.476C329.989 236.607 327.581 235.658 325.195 234.704M283.89 174.825C283.607 174.542 284.43 175.541 284.444 175.564C284.869 176.248 285.327 177.36 285.584 177.921C288.661 184.632 291.743 191.341 294.824 198.05C298.139 205.266 301.314 212.449 304.003 219.919C304.343 220.862 304.556 221.877 305.097 222.722C305.589 223.492 304.838 220.912 304.681 220.011M299.414 172.33C305.171 186.879 309.959 201.688 314.876 216.531C315.504 218.426 316.237 220.28 316.878 222.167C317.095 222.805 316.75 222.613 316.324 222.783M269.752 187.577C271.163 192.456 273.048 197.128 274.988 201.823C278.295 209.824 281.655 217.937 286.323 225.263C287.94 227.801 289.719 230.264 291.683 232.547C292.464 233.456 292.64 233.7 292.484 232.763M187.419 233.318C187.419 235.17 189.127 236.329 190.361 237.584C195.674 242.988 202.484 245.921 209.689 247.979C215.604 249.669 221.406 249.753 227.492 250.012C232.249 250.214 236.988 250.595 241.753 250.72C247.068 250.86 252.08 250.185 257.293 249.273L257.709 249.2C264.253 248.055 270.749 246.918 277.221 245.392C288.411 242.753 300.062 242.143 311.103 238.769C311.921 238.519 309.469 238.239 308.624 238.107C300.844 236.898 293 236.115 285.183 235.196C277.486 234.291 269.79 233.148 262.051 232.655C257.516 232.366 252.979 232.28 248.468 231.685C240.501 230.635 232.694 228.535 224.643 228.328C222.131 228.263 219.619 228.159 217.106 228.098M217.106 228.098C215.907 228.069 214.707 228.05 213.508 228.05C210.452 228.05 216.836 228.119 216.927 228.112C216.987 228.108 217.046 228.103 217.106 228.098ZM217.106 228.098C220.993 227.789 224.794 226.816 228.555 225.833C235.505 224.016 242.64 222.114 249.269 219.303C252.349 217.997 254.881 215.821 257.678 214.036C258.831 213.3 261.297 212.24 258.355 212.773C250.409 214.212 242.778 216.851 235.131 219.38C230.795 220.813 229.264 221.332 225.059 222.552C223.166 223.102 221.029 223.481 219.176 224.231C216.652 225.252 213.875 226.764 211.259 226.11" stroke="#F4CB15" stroke-width="50" stroke-linecap="round"/>
<path d="M140.651 80.186C135.77 81.2812 132.985 83.6592 131.265 88.2274C129.7 92.3889 130.451 94.3601 133.58 94.3601C135.238 94.3601 135.238 94.3601 137.491 92.0447C140.996 88.3526 143.686 87.5703 146.815 89.26C148.004 89.917 148.755 90.668 149.913 92.3889C151.634 94.9234 152.135 95.2988 153.887 95.2988C158.518 95.2988 159.331 91.9196 155.983 86.6317C153.762 83.1272 151.759 81.5941 148.036 80.4676C146.44 79.9983 142.185 79.8419 140.651 80.186Z" fill="black"/>
<path d="M188.837 80.7805C185.333 81.6253 182.673 83.8782 180.796 87.6329C179.701 89.7919 179.325 92.7956 179.982 94.0159C181.015 95.8933 183.33 96.5817 185.02 95.4552C185.489 95.1736 186.178 94.3288 186.616 93.5779C188.368 90.5741 191.997 88.4464 194.532 88.9158C195.502 89.0722 196.284 89.698 198.599 92.0447L201.478 94.9859H203.105C204.982 94.9859 206.328 94.2975 206.86 93.046C208.018 90.2299 204.2 83.8156 200.258 81.9069C196.878 80.3112 192.592 79.8731 188.837 80.7805Z" fill="black"/>
<path d="M125.976 99.2094C124.506 99.71 124.068 100.085 123.473 101.368C122.848 102.682 122.848 104.841 123.442 106.531C124.443 109.441 127.134 114.291 129.606 117.733C134.988 125.242 142.81 131.218 151.446 134.41C157.86 136.788 162.178 137.633 168.186 137.664C173.912 137.664 176.697 137.163 183.205 134.973C193.405 131.531 201.009 126.431 207.016 118.953C209.112 116.356 213.618 107.814 214.307 105.154C214.682 103.715 214.307 101.775 213.462 100.805C212.617 99.8664 210.708 99.0529 209.331 99.0529C206.734 99.0529 205.326 100.398 204.294 103.871C202.198 110.912 195.627 119.454 189.619 122.958C186.177 124.992 181.64 126.744 177.291 127.777C174.287 128.465 173.098 128.59 168.342 128.59C163.305 128.621 162.585 128.528 159.268 127.714C152.134 125.931 146.44 123.021 142.247 119.047C137.554 114.604 134.863 110.505 132.985 104.81C131.953 101.775 131.483 100.774 130.732 100.148C129.919 99.4597 129.45 99.2719 127.635 98.9278C127.353 98.8652 126.602 98.9903 125.976 99.2094Z" fill="black"/>
</svg>
