<svg width="28" height="28" viewBox="0 0 28 28" fill="none" xmlns="http://www.w3.org/2000/svg">
<rect width="28" height="28" rx="6" fill="#FFEEC2"/>
<path d="M13.4688 19.1562C12.651 19.1562 11.9167 19.0156 11.2656 18.7344C10.6198 18.4479 10.1094 18.0521 9.73438 17.5469C9.36458 17.0365 9.17188 16.4583 9.15625 15.8125H11.5312C11.5469 16.0885 11.6406 16.3333 11.8125 16.5469C11.9844 16.7604 12.2161 16.9271 12.5078 17.0469C12.7995 17.1615 13.125 17.2188 13.4844 17.2188C13.8542 17.2188 14.1849 17.1536 14.4766 17.0234C14.7734 16.888 15.0026 16.7031 15.1641 16.4688C15.3307 16.2344 15.4115 15.9688 15.4062 15.6719C15.4115 15.3646 15.3255 15.0911 15.1484 14.8516C14.9766 14.612 14.7292 14.4271 14.4062 14.2969C14.0833 14.1615 13.7031 14.0938 13.2656 14.0938H12.2188V12.3594H13.2656C13.6302 12.3594 13.9557 12.2969 14.2422 12.1719C14.5286 12.0469 14.7526 11.8698 14.9141 11.6406C15.0755 11.4115 15.1562 11.151 15.1562 10.8594C15.1562 10.5729 15.0859 10.3203 14.9453 10.1016C14.8099 9.88281 14.6172 9.71354 14.3672 9.59375C14.1172 9.46875 13.8281 9.40625 13.5 9.40625C13.1667 9.40625 12.8594 9.46615 12.5781 9.58594C12.3021 9.70052 12.0781 9.86719 11.9062 10.0859C11.7396 10.2995 11.651 10.5469 11.6406 10.8281H9.39062C9.40104 10.1875 9.58594 9.61719 9.94531 9.11719C10.3047 8.61719 10.7943 8.22917 11.4141 7.95312C12.0391 7.67188 12.7344 7.53125 13.5 7.53125C14.2708 7.53125 14.9531 7.67188 15.5469 7.95312C16.1458 8.22917 16.6094 8.61198 16.9375 9.10156C17.2656 9.58594 17.4271 10.125 17.4219 10.7188C17.4271 11.1302 17.3385 11.5052 17.1562 11.8438C16.9792 12.1771 16.7266 12.4531 16.3984 12.6719C16.0755 12.8906 15.7031 13.0365 15.2812 13.1094V13.2031C15.8281 13.2708 16.2943 13.4219 16.6797 13.6562C17.0651 13.8906 17.3568 14.1953 17.5547 14.5703C17.7526 14.9401 17.849 15.3594 17.8438 15.8281C17.849 16.4635 17.6641 17.0365 17.2891 17.5469C16.9141 18.0521 16.3932 18.4479 15.7266 18.7344C15.0599 19.0156 14.3073 19.1562 13.4688 19.1562Z" fill="#FFB800"/>
</svg>
