<svg width="34" height="34" viewBox="0 0 34 34" fill="none" xmlns="http://www.w3.org/2000/svg">
<rect width="34" height="34" rx="8" fill="#FBD8D2"/>
<path fill-rule="evenodd" clip-rule="evenodd" d="M10.4355 8.2613H10.4212L9.70979 8.32987C9.21509 8.3775 8.75109 8.59122 8.39336 8.93623C8.03564 9.28125 7.80527 9.73721 7.73979 10.2299L7.69693 10.5556L7.69408 10.5756C7.53122 11.7884 7.35693 13.097 7.35693 14.447C7.35693 15.7956 7.53122 17.1042 7.69408 18.317L7.69693 18.337L7.73979 18.6627C7.80527 19.1554 8.03564 19.6114 8.39336 19.9564C8.75109 20.3014 9.21509 20.5151 9.70979 20.5627C9.94408 20.5842 10.1812 20.6056 10.4198 20.6299H10.4226C10.9998 20.687 11.5941 20.7442 12.1941 20.7927C12.2876 20.8002 12.3817 20.7892 12.471 20.7604C12.5602 20.7315 12.6429 20.6854 12.7144 20.6246C12.7858 20.5637 12.8446 20.4894 12.8873 20.4059C12.93 20.3224 12.9559 20.2312 12.9634 20.1377C12.9709 20.0442 12.9599 19.9501 12.931 19.8609C12.9022 19.7716 12.856 19.6889 12.7952 19.6174C12.7344 19.546 12.6601 19.4872 12.5765 19.4445C12.493 19.4018 12.4019 19.3759 12.3084 19.3684L12.2226 19.3627C12.2214 19.2713 12.2209 19.1799 12.2212 19.0884C12.2212 17.7884 12.3912 16.517 12.5541 15.2927L12.5969 14.9656C12.6414 14.6335 12.7969 14.3261 13.0381 14.0935C13.2793 13.8609 13.592 13.7166 13.9255 13.6842L14.6398 13.6156C16.0712 13.477 17.5541 13.3313 19.0741 13.3313C19.7341 13.3313 20.3855 13.3599 21.0298 13.4013L21.0355 13.4956C21.051 13.6813 21.1384 13.8536 21.2791 13.9757C21.4199 14.0978 21.6027 14.1601 21.7888 14.1493C21.9748 14.1385 22.1492 14.0554 22.2748 13.9178C22.4005 13.7802 22.4674 13.599 22.4612 13.4127C22.4041 12.4299 22.2755 11.4713 22.1541 10.567V10.5556L22.1098 10.2299C22.0446 9.73696 21.8144 9.28066 21.4566 8.93536C21.0989 8.59006 20.6347 8.37613 20.1398 8.32844L19.4298 8.26273L19.4155 8.2613C17.9912 8.1213 16.4798 7.97559 14.9255 7.97559C13.3712 7.97559 11.8584 8.1213 10.4355 8.2613Z" fill="#EF5C44"/>
<path d="M14.6114 13.4035L14.6126 13.4034C16.0474 13.2631 17.545 13.1172 19.074 13.1172C20.6025 13.1172 22.1013 13.263 23.5356 13.4033C23.7449 13.4247 23.9532 13.4439 24.1556 13.4626C24.1847 13.4653 24.2137 13.468 24.2426 13.4707C24.6246 13.5076 24.9828 13.6727 25.259 13.9392L25.6061 13.5793L25.259 13.9392C25.5354 14.2058 25.7135 14.5581 25.7641 14.9388L25.7641 14.9394L25.8084 15.2691C25.9718 16.4922 26.1426 17.7756 26.1426 19.0886C26.1426 20.4015 25.9718 21.685 25.807 22.9075L25.8067 22.9102L25.7641 23.2395C25.764 23.2399 25.764 23.2403 25.764 23.2406C25.7129 23.6207 25.5349 23.9724 25.2588 24.2385C24.9824 24.5049 24.6239 24.6699 24.2418 24.7066L24.2412 24.7067L23.5372 24.7752L23.537 24.7753L23.5151 24.7774C22.0867 24.9157 20.5952 25.06 19.074 25.06C17.5453 25.06 16.0477 24.9156 14.6138 24.7754C14.4044 24.754 14.1962 24.7347 13.9938 24.716C13.9646 24.7133 13.9356 24.7106 13.9066 24.708C13.5247 24.671 13.1666 24.5059 12.8904 24.2395L12.5433 24.5994L12.8904 24.2395C12.6139 23.9729 12.4359 23.6206 12.3853 23.2399L12.3853 23.2395L12.341 22.9081L12.341 22.908C12.1776 21.6865 12.0068 20.4016 12.0068 19.09C12.0068 17.7756 12.1776 16.4921 12.341 15.2706L12.341 15.2706L12.3853 14.9391L12.3853 14.9388C12.4359 14.5581 12.6139 14.2058 12.8904 13.9392C13.1668 13.6726 13.5253 13.5074 13.9076 13.4706L14.6114 13.4035Z" fill="#FBD8D2" stroke="#EF5C44"/>
<path fill-rule="evenodd" clip-rule="evenodd" d="M22.2425 25.3996C22.27 25.2364 22.2397 25.0687 22.1568 24.9254C21.0111 22.9339 19.3168 20.8996 17.2925 19.4611C16.1411 18.6411 14.6268 18.7211 13.5182 19.5068C12.7825 20.0282 12.204 20.5296 11.6211 21.1511C11.6854 21.7768 11.7668 22.3868 11.8454 22.9739L11.8882 23.3054C11.9538 23.7982 12.1844 24.2544 12.5424 24.5994C12.9004 24.9444 13.3647 25.158 13.8597 25.2054C14.0911 25.2254 14.3268 25.2482 14.564 25.2725C15.9954 25.4111 17.5168 25.5596 19.074 25.5596C20.154 25.5596 21.2168 25.4882 22.2425 25.3982V25.3996Z" fill="#EF5C44"/>
<path d="M21.7582 18.9342C22.8696 18.9342 23.4953 18.3085 23.4953 17.1971C23.4953 16.0857 22.8696 15.46 21.7582 15.46C20.6467 15.46 20.0225 16.0857 20.0225 17.1971C20.0225 18.3085 20.6467 18.9342 21.7582 18.9342Z" fill="#EF5C44"/>
</svg>
