<svg width="34" height="34" viewBox="0 0 34 34" fill="none" xmlns="http://www.w3.org/2000/svg">
<rect width="34" height="34" rx="8" fill="#FFEEC2"/>
<g clip-path="url(#clip0_164_395)">
<path fill-rule="evenodd" clip-rule="evenodd" d="M14.8484 7.8832C13.1758 7.79077 11.4989 7.80699 9.82841 7.93177C8.78555 8.00463 7.97126 8.82463 7.85555 9.83749C7.36984 14.0675 7.20555 18.3361 7.71412 22.6146C7.92841 24.4046 9.38841 25.6718 11.0827 25.8561C15.0827 26.2918 19.0227 26.2803 23.0184 25.8446C23.8474 25.753 24.6211 25.3842 25.2144 24.798C25.8076 24.2118 26.1855 23.4424 26.287 22.6146C26.6027 19.9703 26.687 17.2632 26.4913 13.9575C26.4428 13.1312 26.0978 12.3501 25.5197 11.7578C24.9415 11.1654 24.169 10.8016 23.3441 10.7332C21.6441 10.5932 20.3927 10.5675 18.5413 10.5303L17.6841 10.5132C17.5413 10.5103 17.4026 10.4645 17.2861 10.3817C17.1697 10.2989 17.0809 10.1829 17.0313 10.0489L16.7456 9.27606C16.6012 8.88317 16.3442 8.54153 16.0068 8.29381C15.6694 8.04609 15.2665 7.90327 14.8484 7.8832Z" fill="#FFB800"/>
</g>
<defs>
<clipPath id="clip0_164_395">
<rect width="20" height="20" fill="white" transform="translate(7 7)"/>
</clipPath>
</defs>
</svg>
