<svg width="34" height="34" viewBox="0 0 34 34" fill="none" xmlns="http://www.w3.org/2000/svg">
<rect width="34" height="34" rx="8" fill="#CEEEDF"/>
<g clip-path="url(#clip0_164_453)">
<path fill-rule="evenodd" clip-rule="evenodd" d="M14.8484 7.8832C13.1758 7.79077 11.4989 7.80699 9.82841 7.93177C8.78555 8.00463 7.97126 8.82463 7.85555 9.83749C7.36984 14.0675 7.20555 18.3361 7.71412 22.6146C7.92841 24.4046 9.38841 25.6718 11.0827 25.8561C15.0827 26.2918 19.0227 26.2803 23.0184 25.8446C23.8474 25.753 24.6211 25.3842 25.2144 24.798C25.8076 24.2118 26.1855 23.4424 26.287 22.6146C26.6027 19.9703 26.687 17.2632 26.4913 13.9575C26.4428 13.1312 26.0978 12.3501 25.5197 11.7578C24.9415 11.1654 24.169 10.8016 23.3441 10.7332C21.6441 10.5932 20.3927 10.5675 18.5413 10.5303L17.6841 10.5132C17.5413 10.5103 17.4026 10.4645 17.2861 10.3817C17.1697 10.2989 17.0809 10.1829 17.0313 10.0489L16.7456 9.27606C16.6012 8.88317 16.3442 8.54153 16.0068 8.29381C15.6694 8.04609 15.2665 7.90327 14.8484 7.8832Z" fill="#32B67A"/>
<path fill-rule="evenodd" clip-rule="evenodd" d="M16.2614 15.3929C16.2614 15.1561 16.3555 14.929 16.5229 14.7615C16.6904 14.5941 16.9175 14.5 17.1543 14.5C17.3911 14.5 17.6182 14.5941 17.7856 14.7615C17.9531 14.929 18.0471 15.1561 18.0471 15.3929V17.5114H20.1671C20.4039 17.5114 20.631 17.6055 20.7985 17.7729C20.9659 17.9404 21.06 18.1675 21.06 18.4043C21.06 18.6411 20.9659 18.8682 20.7985 19.0356C20.631 19.2031 20.4039 19.2971 20.1671 19.2971H18.0471V21.4157C18.0471 21.6525 17.9531 21.8796 17.7856 22.0471C17.6182 22.2145 17.3911 22.3086 17.1543 22.3086C16.9175 22.3086 16.6904 22.2145 16.5229 22.0471C16.3555 21.8796 16.2614 21.6525 16.2614 21.4157V19.2971H14.1429C13.9061 19.2971 13.679 19.2031 13.5115 19.0356C13.3441 18.8682 13.25 18.6411 13.25 18.4043C13.25 18.1675 13.3441 17.9404 13.5115 17.7729C13.679 17.6055 13.9061 17.5114 14.1429 17.5114H16.2614V15.3929Z" fill="#CEEEDF"/>
</g>
<defs>
<clipPath id="clip0_164_453">
<rect width="20" height="20" fill="white" transform="translate(7 7)"/>
</clipPath>
</defs>
</svg>
