<svg width="34" height="34" viewBox="0 0 34 34" fill="none" xmlns="http://www.w3.org/2000/svg">
<rect x="0.5" y="0.5" width="33" height="33" rx="7.5" fill="white"/>
<rect x="0.5" y="0.5" width="33" height="33" rx="7.5" stroke="#E1E3E1"/>
<g clip-path="url(#clip0_696_494)">
<path d="M17.0002 6.39258C13.7128 6.39258 11.0335 7.31972 9.17607 9.17558C7.32021 11.033 6.39307 13.7123 6.39307 16.9997C6.39307 20.2871 7.32021 22.9664 9.17607 24.8239C11.0335 26.6797 13.7128 27.6069 17.0002 27.6069C20.2876 27.6069 22.9669 26.6797 24.8244 24.8239C26.6802 22.9664 27.6074 20.2871 27.6074 16.9997C27.6074 13.7123 26.6802 11.033 24.8244 9.17558C22.9669 7.31972 20.2876 6.39258 17.0002 6.39258Z" fill="#17A5E7"/>
<path fill-rule="evenodd" clip-rule="evenodd" d="M10.7554 20.3516C11.0996 20.3516 11.4404 20.2838 11.7584 20.1521C12.0764 20.0203 12.3654 19.8273 12.6088 19.5839C12.8522 19.3405 13.0452 19.0515 13.177 18.7335C13.3087 18.4155 13.3765 18.0747 13.3765 17.7305V15.4833C13.3765 14.7881 13.6526 14.1214 14.1442 13.6299C14.6358 13.1383 15.3025 12.8622 15.9976 12.8622C16.6925 12.8622 17.359 12.5862 17.8505 12.095C18.342 11.6038 18.6184 10.9375 18.6188 10.2426V6.47274C18.081 6.41856 17.5407 6.39181 17.0002 6.39259C13.7128 6.39259 11.0335 7.31974 9.17607 9.1756C7.32021 11.033 6.39307 13.7123 6.39307 16.9997C6.39307 18.2019 6.51721 19.3223 6.7655 20.3516H10.7554ZM27.5414 18.4737C27.2994 21.0933 26.3942 23.2509 24.8228 24.8223C23.9634 25.6744 22.9373 26.3399 21.8088 26.7772V23.7537C21.809 23.5077 21.7607 23.264 21.6666 23.0367C21.5726 22.8093 21.4346 22.6027 21.2606 22.4288C21.0866 22.2548 20.8801 22.1168 20.6527 22.0228C20.4253 21.9287 20.1817 21.8804 19.9356 21.8806C19.2405 21.8806 18.5738 21.6044 18.0822 21.1129C17.5907 20.6213 17.3145 19.9546 17.3145 19.2595C17.3145 18.5643 17.5907 17.8976 18.0822 17.406C18.5738 16.9145 19.2405 16.6383 19.9356 16.6383H23.1256C24.7694 16.6477 26.5388 17.4712 27.5414 18.4737Z" fill="#6DDB15"/>
</g>
<defs>
<clipPath id="clip0_696_494">
<rect width="22" height="22" fill="white" transform="translate(6 6)"/>
</clipPath>
</defs>
</svg>
