<svg width="34" height="34" viewBox="0 0 34 34" fill="none" xmlns="http://www.w3.org/2000/svg">
<rect x="0.5" y="0.5" width="33" height="33" rx="7.5" fill="white"/>
<rect x="0.5" y="0.5" width="33" height="33" rx="7.5" stroke="#E1E3E1"/>
<path fill-rule="evenodd" clip-rule="evenodd" d="M18.2958 8.80721C17.9231 8.52426 17.4681 8.37109 17.0001 8.37109C16.5322 8.37109 16.0771 8.52426 15.7044 8.80721L14.7615 9.52293C11.9912 11.627 9.61797 14.2078 7.75298 17.1444L7.45155 17.6201C7.31442 17.8361 7.23781 18.0849 7.22972 18.3406C7.22163 18.5963 7.28236 18.8495 7.40556 19.0737C7.52877 19.298 7.70993 19.485 7.93011 19.6153C8.15029 19.7455 8.40142 19.8143 8.65726 19.8144H9.64441C9.58726 21.1286 9.65869 22.4444 9.85869 23.7458C10.0587 25.0401 11.173 25.9944 12.4815 25.9944H21.5187C22.8287 25.9944 23.9415 25.0401 24.1401 23.7472C24.3401 22.4444 24.4115 21.1272 24.3544 19.8144H25.343C25.5988 19.8143 25.8499 19.7455 26.0701 19.6153C26.2903 19.485 26.4715 19.298 26.5947 19.0737C26.7179 18.8495 26.7786 18.5963 26.7705 18.3406C26.7624 18.0849 26.6858 17.8361 26.5487 17.6201L26.2473 17.1444C24.3823 14.2078 22.009 11.627 19.2387 9.52293L18.2958 8.80721Z" fill="black"/>
<path fill-rule="evenodd" clip-rule="evenodd" d="M18.7858 25.9943V21.2857C18.7858 21.0512 18.7396 20.819 18.6499 20.6024C18.5601 20.3857 18.4286 20.1888 18.2628 20.023C18.0969 19.8572 17.9001 19.7257 17.6834 19.6359C17.4668 19.5462 17.2346 19.5 17.0001 19.5C16.7656 19.5 16.5334 19.5462 16.3167 19.6359C16.1001 19.7257 15.9032 19.8572 15.7374 20.023C15.5716 20.1888 15.44 20.3857 15.3503 20.6024C15.2605 20.819 15.2144 21.0512 15.2144 21.2857V25.9943H18.7858Z" fill="white"/>
</svg>
