<svg width="34" height="34" viewBox="0 0 34 34" fill="none" xmlns="http://www.w3.org/2000/svg">
<rect width="34" height="34" rx="8" fill="#F0F1F2"/>
<path fill-rule="evenodd" clip-rule="evenodd" d="M16.4413 7.35742H17.5613C17.9803 7.35828 18.3894 7.48517 18.7354 7.72159C19.0813 7.95802 19.3482 8.29305 19.5013 8.68314L20.0141 9.98599L21.5713 10.8846L22.9513 10.6746C23.3663 10.6121 23.7906 10.6761 24.1688 10.8583C24.547 11.0405 24.8615 11.3324 25.0713 11.696L25.6298 12.6617C25.8402 13.0252 25.936 13.4436 25.9047 13.8624C25.8733 14.2812 25.7163 14.6808 25.4541 15.0089L24.5827 16.0988V17.9017L25.4484 18.9917C25.7099 19.3201 25.8664 19.7196 25.8978 20.1382C25.9291 20.5568 25.8338 20.9752 25.6241 21.3389L25.067 22.3046C24.857 22.668 24.5425 22.9598 24.1644 23.142C23.7863 23.3242 23.362 23.3883 22.947 23.326L21.5655 23.116L20.007 24.016L19.497 25.316C19.3441 25.7064 19.0774 26.0417 18.7314 26.2784C18.3854 26.5151 17.9762 26.6422 17.557 26.6431H16.4384C16.0192 26.6422 15.61 26.5151 15.264 26.2784C14.918 26.0417 14.6512 25.7064 14.4984 25.316L13.9884 24.016L12.4298 23.116L11.0484 23.326C10.6335 23.3886 10.2093 23.3248 9.83112 23.1429C9.45297 22.9609 9.13839 22.6693 8.92839 22.306L8.37125 21.3389C8.16084 20.9754 8.06504 20.5569 8.09639 20.1381C8.12774 19.7193 8.28478 19.3198 8.54697 18.9917L9.41839 17.9017V16.0988L8.54697 15.0089C8.28492 14.6808 8.12786 14.2813 8.09626 13.8626C8.06466 13.4439 8.15999 13.0254 8.36982 12.6617L8.92697 11.696C9.13686 11.3322 9.45158 11.0401 9.83003 10.8578C10.2085 10.6756 10.6331 10.6118 11.0484 10.6746L12.4255 10.8846L13.9884 9.97885L14.5013 8.68314C14.654 8.29282 14.9208 7.95757 15.2668 7.7211C15.6129 7.48462 16.0221 7.35789 16.4413 7.35742ZM19.8513 17.0003C19.8513 18.8246 18.8241 19.8517 16.9998 19.8517C15.1755 19.8517 14.1484 18.8246 14.1484 17.0003C14.1484 15.176 15.1755 14.1489 16.9998 14.1489C18.8241 14.1489 19.8513 15.176 19.8513 17.0003Z" fill="#5F6060"/>
</svg>
