<svg width="20" height="20" viewBox="0 0 20 20" fill="none" xmlns="http://www.w3.org/2000/svg">
<g clip-path="url(#clip0_164_422)">
<path d="M17.5026 17.4773C16.7539 18.2281 15.7729 18.7029 14.7196 18.8243C13.19 18.9952 11.6112 19.1426 10.0002 19.1426C8.38921 19.1426 6.81047 18.9952 5.28088 18.8243C4.22758 18.7029 3.24653 18.2281 2.49784 17.4773C1.7492 16.7265 1.27711 15.7442 1.15862 14.6906C0.994961 13.1691 0.857353 11.6007 0.857353 9.99972C0.857353 8.39878 0.994961 6.83037 1.15862 5.30884C1.27711 4.25526 1.7492 3.27293 2.49784 2.52217C3.24646 1.77145 4.22741 1.29661 5.2806 1.17514C6.81028 1.00423 8.38911 0.856865 10.0002 0.856865C11.6113 0.856865 13.1902 1.00423 14.7198 1.17514C15.773 1.29662 16.754 1.77145 17.5026 2.52217C18.2512 3.27289 18.7233 4.25515 18.8418 5.30867C19.0054 6.83025 19.1431 8.39872 19.1431 9.99972C19.1431 11.6007 19.0054 13.1692 18.8418 14.6908C18.7233 15.7443 18.2512 16.7266 17.5026 17.4773Z" fill="#F0F1F2" stroke="#5F6060"/>
<path d="M5.2247 0.678076C6.53613 0.530933 7.89613 0.400934 9.28613 0.365219L9.28613 19.6338C7.8947 19.5981 6.53613 19.4681 5.2247 19.3209C4.05874 19.1867 2.97273 18.6612 2.144 17.8301C1.31527 16.999 0.792776 15.9115 0.661846 14.7452C0.497561 13.2181 0.357561 11.6281 0.357561 9.9995C0.357561 8.37093 0.497561 6.78093 0.661846 5.25379C0.792776 4.08746 1.31527 2.99997 2.144 2.1689C2.97273 1.33783 4.05874 0.812286 5.2247 0.678076Z" fill="#5F6060"/>
<path fill-rule="evenodd" clip-rule="evenodd" d="M5.53585 11.0713H3.393C3.1562 11.0713 2.9291 10.9772 2.76165 10.8098C2.59421 10.6423 2.50014 10.4152 2.50014 10.1784C2.50014 9.94163 2.59421 9.71453 2.76165 9.54709C2.9291 9.37964 3.1562 9.28557 3.393 9.28557H5.53585C5.77265 9.28557 5.99976 9.37964 6.1672 9.54709C6.33464 9.71453 6.42871 9.94163 6.42871 10.1784C6.42871 10.4152 6.33464 10.6423 6.1672 10.8098C5.99976 10.9772 5.77265 11.0713 5.53585 11.0713ZM5.53585 6.78557H3.393C3.27575 6.78557 3.15964 6.76248 3.05131 6.71761C2.94299 6.67274 2.84456 6.60697 2.76165 6.52406C2.67874 6.44115 2.61297 6.34273 2.5681 6.2344C2.52323 6.12607 2.50014 6.00997 2.50014 5.89272C2.50014 5.77547 2.52323 5.65936 2.5681 5.55104C2.61297 5.44271 2.67874 5.34428 2.76165 5.26137C2.84456 5.17846 2.94299 5.1127 3.05131 5.06783C3.15964 5.02295 3.27575 4.99986 3.393 4.99986H5.53585C5.77265 4.99986 5.99976 5.09393 6.1672 5.26137C6.33464 5.42882 6.42871 5.65592 6.42871 5.89272C6.42871 6.12952 6.33464 6.35662 6.1672 6.52406C5.99976 6.69151 5.77265 6.78557 5.53585 6.78557Z" fill="#F0F1F2"/>
</g>
<defs>
<clipPath id="clip0_164_422">
<rect width="20" height="20" fill="white" transform="matrix(-1 0 0 -1 20 20)"/>
</clipPath>
</defs>
</svg>
