<svg width="34" height="34" viewBox="0 0 34 34" fill="none" xmlns="http://www.w3.org/2000/svg">
<rect width="34" height="34" rx="8" fill="#D2ECFB"/>
<g clip-path="url(#clip0_164_446)">
<path fill-rule="evenodd" clip-rule="evenodd" d="M9.75114 7.35742C8.63934 7.35742 7.6835 8.21503 7.64857 9.36745C7.54718 12.7123 7.73468 19.1395 8.97076 23.6359C9.50467 25.578 11.35 26.6431 13.2198 26.6431H20.7795C22.6493 26.6431 24.4946 25.578 25.0286 23.6359C26.2646 19.1395 26.4521 12.7123 26.3507 9.36745C26.3159 8.21503 25.36 7.35742 24.2481 7.35742H9.75114Z" fill="#43B0EF"/>
<path fill-rule="evenodd" clip-rule="evenodd" d="M12.9682 14.6221C12.7717 15.0744 12.9791 15.6003 13.4314 15.7968C13.8837 15.9932 14.4096 15.7858 14.6061 15.3335C15.0479 14.3162 16.0606 13.6076 17.2368 13.6076C17.9005 13.6076 18.5093 13.8321 18.9949 14.2099C19.3045 14.4507 19.5632 14.7534 19.7525 15.0988C19.9431 15.4464 20.34 15.6267 20.7272 15.5416C21.1144 15.4564 21.3991 15.1262 21.4262 14.7307C21.4745 14.0262 21.4626 12.6443 21.3596 11.881C21.3094 11.5075 21.0298 11.2058 20.6611 11.1271C20.2925 11.0485 19.9141 11.2098 19.7157 11.5303L19.2516 12.2799C18.6417 11.9865 17.9579 11.8219 17.2368 11.8219C15.3242 11.8219 13.6831 12.976 12.9682 14.6221ZM21.3795 19.0235C21.5759 18.5712 21.3685 18.0453 20.9162 17.8489C20.4639 17.6524 19.938 17.8598 19.7415 18.3121C19.2997 19.3294 18.287 20.038 17.1108 20.038C16.4802 20.038 15.8995 19.8354 15.4269 19.4915C15.0845 19.2424 14.7994 18.9195 14.5951 18.5469C14.4045 18.1992 14.0076 18.0189 13.6204 18.104C13.2332 18.1892 12.9485 18.5194 12.9214 18.9149C12.873 19.6194 12.885 21.0013 12.9879 21.7646C13.0368 22.1271 13.3017 22.4231 13.6566 22.5116C14.0114 22.6001 14.3844 22.4633 14.5978 22.1663L15.1536 21.3929C15.7489 21.6693 16.4124 21.8236 17.1108 21.8236C19.0234 21.8236 20.6645 20.6696 21.3795 19.0235Z" fill="#D2ECFB"/>
</g>
<defs>
<clipPath id="clip0_164_446">
<rect width="20" height="20" fill="white" transform="translate(7 7)"/>
</clipPath>
</defs>
</svg>
