<svg width="32" height="32" viewBox="0 0 32 32" fill="none" xmlns="http://www.w3.org/2000/svg">
<path d="M15.9998 31.9995C26.2396 31.9995 31.9995 26.2396 31.9995 15.9998C31.9995 5.75992 26.2396 0 15.9998 0C5.75992 0 0 5.75992 0 15.9998C0 26.2396 5.75992 31.9995 15.9998 31.9995Z" fill="none"/>
<path fill-rule="evenodd" clip-rule="evenodd" d="M17.4283 1.42855C17.4283 0.639584 16.7887 0 15.9998 0C15.2108 0 14.5712 0.639584 14.5712 1.42855V4.79122C14.5712 5.58017 15.2108 6.21977 15.9998 6.21977C16.7887 6.21977 17.4283 5.58017 17.4283 4.79122V1.42855ZM6.69812 4.6763C6.14023 4.11841 5.23572 4.11841 4.67783 4.6763C4.11996 5.23419 4.11996 6.1387 4.67783 6.69659L7.05412 9.07285C7.61201 9.63074 8.51652 9.63074 9.07441 9.07285C9.63227 8.51499 9.63227 7.61047 9.07441 7.05258L6.69812 4.6763ZM1.42855 14.5712C0.639584 14.5712 0 15.2108 0 15.9998C0 16.7887 0.639584 17.4283 1.42855 17.4283H4.79122C5.58017 17.4283 6.21977 16.7887 6.21977 15.9998C6.21977 15.2108 5.58017 14.5712 4.79122 14.5712H1.42855ZM9.07441 22.9254C9.63227 23.4833 9.63227 24.3878 9.07441 24.9457L6.69812 27.3219C6.14023 27.8798 5.23572 27.8798 4.67783 27.3219C4.11996 26.764 4.11996 25.8595 4.67783 25.3016L7.05412 22.9254C7.61201 22.3675 8.51652 22.3675 9.07441 22.9254ZM27.209 14.5712C26.42 14.5712 25.7804 15.2108 25.7804 15.9998C25.7804 16.7887 26.42 17.4283 27.209 17.4283H30.5715C31.3605 17.4283 32 16.7887 32 15.9998C32 15.2108 31.3605 14.5712 30.5715 14.5712H27.209ZM22.9258 22.9254C23.4838 22.3675 24.3882 22.3675 24.9462 22.9254L27.3224 25.3016C27.8803 25.8595 27.8803 26.764 27.3224 27.3219C26.7646 27.8798 25.86 27.8798 25.3023 27.3219L22.9258 24.9457C22.368 24.3878 22.368 23.4833 22.9258 22.9254ZM17.4283 27.2083C17.4283 26.4193 16.7887 25.7797 15.9998 25.7797C15.2108 25.7797 14.5712 26.4193 14.5712 27.2083V30.571C14.5712 31.36 15.2108 31.9995 15.9998 31.9995C16.7887 31.9995 17.4283 31.36 17.4283 30.571V27.2083ZM27.3224 4.6763C27.8803 5.23419 27.8803 6.1387 27.3224 6.69659L24.9462 9.07285C24.3882 9.63074 23.4838 9.63074 22.9258 9.07285C22.368 8.51499 22.368 7.61047 22.9258 7.05258L25.3023 4.6763C25.86 4.11841 26.7646 4.11841 27.3224 4.6763Z" fill="#0C098C"/>
</svg>
