<svg width="624" height="624" viewBox="0 0 624 624" fill="none" xmlns="http://www.w3.org/2000/svg">
<ellipse cx="314.071" cy="308.882" rx="274" ry="273" fill="#E1A000"/>
<ellipse cx="310.571" cy="276.882" rx="282.5" ry="249" fill="#F4CB15"/>
<path d="M284.785 21.6817C234.5 25.5674 187.3 42.9388 139.757 74.8245C120.785 87.6245 95.7568 110.253 79.2997 129.567C50.7282 163.282 24.8997 217.11 18.0425 257.453C10.8425 299.739 11.2997 332.31 19.7568 374.482C24.5568 398.482 42.4997 440.082 58.9568 465.453C73.6997 487.967 99.9854 518.253 117.814 532.767C152.1 560.882 194.614 583.282 232.785 593.453C292.214 609.225 355.643 606.596 415.071 586.025C447.185 574.825 488.9 550.482 511.414 529.796C542.042 501.567 562.157 475.053 580.785 438.367C597.471 405.225 603.3 386.596 609.014 348.31C611.414 331.967 611.643 295.967 609.471 278.825C602.157 220.882 568.328 151.739 526.614 109.567C499.528 82.2531 464.9 58.7103 431.642 44.7674C399.985 31.6245 380.557 26.2531 353.357 23.1674C334.842 21.1103 301.814 20.3103 284.785 21.6817ZM352.214 55.0531C398.842 62.0245 442.614 80.4246 479.757 108.996C511.642 133.453 543.3 174.482 558.957 211.739C562.271 219.625 565.585 227.625 566.5 229.567C568.671 234.71 574.728 257.796 576.9 269.453C579.414 283.396 580.328 320.31 578.614 339.739C576.557 363.167 566.842 398.253 557.014 418.139C540.785 450.939 531.185 466.025 514.842 484.31C491.757 510.253 472.785 524.996 441.242 541.339C414.614 555.167 391.3 563.167 357.357 570.253C343.642 572.996 340.557 573.225 316.785 573.11C300.214 573.11 287.185 572.425 280.214 571.282C259.3 568.082 248.443 565.91 240.671 563.625C236.328 562.367 229.243 560.196 224.9 558.939C202.271 552.31 168.557 534.253 145.471 516.425C118.5 495.51 93.5854 467.053 77.3568 438.71C70.7282 427.167 62.4431 405.882 61.9282 404.996C61.571 404.382 60.8848 402.823 60.571 401.882C60.071 400.382 59.071 397.882 58.571 396.882C57.73 395.199 57.071 393.382 56.571 391.382C55.918 388.769 54.9568 387.625 50.3854 368.767C45.2425 347.053 43.6425 333.682 43.6425 311.967C43.6425 289.11 44.7854 278.596 49.3568 258.025C57.2425 222.596 78.4997 179.396 102.271 150.596C124.443 123.739 141.928 108.767 172.785 90.0245C206.843 69.3388 242.385 57.2245 281.357 52.996C297.242 51.1674 333.357 52.3102 352.214 55.0531Z" fill="black"/>
<path d="M211.071 164.539C193.243 168.539 183.071 177.224 176.785 193.91C171.071 209.11 173.814 216.31 185.243 216.31C191.3 216.31 191.3 216.31 199.528 207.853C212.328 194.367 222.157 191.51 233.585 197.682C237.928 200.082 240.671 202.824 244.9 209.11C251.185 218.367 253.014 219.739 259.414 219.739C276.328 219.739 279.3 207.396 267.071 188.082C258.957 175.282 251.643 169.682 238.043 165.567C232.214 163.853 216.671 163.282 211.071 164.539Z" fill="black"/>
<path d="M387.071 166.71C374.271 169.796 364.557 178.024 357.7 191.738C353.7 199.624 352.328 210.596 354.728 215.053C358.5 221.91 366.957 224.424 373.128 220.31C374.842 219.281 377.357 216.196 378.957 213.453C385.357 202.481 398.614 194.71 407.871 196.424C411.414 196.996 414.271 199.281 422.728 207.853L433.242 218.596H439.185C446.042 218.596 450.957 216.081 452.9 211.51C457.128 201.224 443.185 177.796 428.785 170.824C416.442 164.996 400.785 163.396 387.071 166.71Z" fill="black"/>
<path d="M157.471 234.024C152.1 235.853 150.5 237.224 148.328 241.91C146.043 246.71 146.043 254.595 148.214 260.767C151.871 271.395 161.7 289.11 170.728 301.681C190.386 329.11 218.957 350.938 250.5 362.595C273.928 371.281 289.7 374.367 311.643 374.481C332.557 374.481 342.728 372.653 366.5 364.653C403.757 352.081 431.528 333.453 453.471 306.138C461.128 296.653 477.586 265.453 480.1 255.738C481.471 250.481 480.1 243.395 477.014 239.853C473.928 236.424 466.957 233.453 461.928 233.453C452.443 233.453 447.3 238.367 443.528 251.053C435.871 276.767 411.871 307.967 389.928 320.767C377.357 328.195 360.786 334.595 344.9 338.367C333.928 340.881 329.586 341.338 312.214 341.338C293.814 341.453 291.186 341.11 279.071 338.138C253.014 331.624 232.214 320.995 216.9 306.481C199.757 290.253 189.928 275.281 183.071 254.481C179.3 243.395 177.586 239.738 174.843 237.453C171.871 234.938 170.157 234.253 163.528 232.995C162.5 232.767 159.757 233.224 157.471 234.024Z" fill="black"/>
</svg>
