<svg width="624" height="624" viewBox="0 0 624 624" fill="none" xmlns="http://www.w3.org/2000/svg">
<ellipse cx="314.071" cy="308.882" rx="274" ry="273" fill="#E1A000"/>
<ellipse cx="310.571" cy="276.882" rx="282.5" ry="249" fill="#F4CB15"/>
<path d="M284.785 21.6817C234.5 25.5674 187.3 42.9388 139.757 74.8245C120.785 87.6245 95.7568 110.253 79.2997 129.567C50.7282 163.282 24.8997 217.11 18.0425 257.453C10.8425 299.739 11.2997 332.31 19.7568 374.482C24.5568 398.482 42.4997 440.082 58.9568 465.453C73.6997 487.967 99.9854 518.253 117.814 532.767C152.1 560.882 194.614 583.282 232.785 593.453C292.214 609.225 355.643 606.596 415.071 586.025C447.185 574.825 488.9 550.482 511.414 529.796C542.042 501.567 562.157 475.053 580.785 438.367C597.471 405.225 603.3 386.596 609.014 348.31C611.414 331.967 611.643 295.967 609.471 278.825C602.157 220.882 568.328 151.739 526.614 109.567C499.528 82.2531 464.9 58.7103 431.642 44.7674C399.985 31.6245 380.557 26.2531 353.357 23.1674C334.842 21.1103 301.814 20.3103 284.785 21.6817ZM352.214 55.0531C398.842 62.0245 442.614 80.4246 479.757 108.996C511.642 133.453 543.3 174.482 558.957 211.739C562.271 219.625 565.585 227.625 566.5 229.567C568.671 234.71 574.728 257.796 576.9 269.453C579.414 283.396 580.328 320.31 578.614 339.739C576.557 363.167 566.842 398.253 557.014 418.139C540.785 450.939 531.185 466.025 514.842 484.31C491.757 510.253 472.785 524.996 441.242 541.339C414.614 555.167 391.3 563.167 357.357 570.253C343.642 572.996 340.557 573.225 316.785 573.11C300.214 573.11 287.185 572.425 280.214 571.282C259.3 568.082 248.443 565.91 240.671 563.625C236.328 562.367 229.243 560.196 224.9 558.939C202.271 552.31 168.557 534.253 145.471 516.425C118.5 495.51 93.5854 467.053 77.3568 438.71C70.7282 427.167 62.4431 405.882 61.9282 404.996C61.571 404.382 60.8848 402.823 60.571 401.882C60.071 400.382 59.071 397.882 58.571 396.882C57.73 395.199 57.071 393.382 56.571 391.382C55.918 388.769 54.9568 387.625 50.3854 368.767C45.2425 347.053 43.6425 333.682 43.6425 311.967C43.6425 289.11 44.7854 278.596 49.3568 258.025C57.2425 222.596 78.4997 179.396 102.271 150.596C124.443 123.739 141.928 108.767 172.785 90.0245C206.843 69.3388 242.385 57.2245 281.357 52.996C297.242 51.1674 333.357 52.3102 352.214 55.0531Z" fill="black"/>
<path d="M211.071 219.06C193.243 215.06 183.071 206.374 176.785 189.688C171.071 174.488 173.814 167.288 185.243 167.288C191.3 167.288 191.3 167.288 199.528 175.745C212.328 189.231 222.157 192.088 233.585 185.917C237.928 183.517 240.671 180.774 244.9 174.488C251.185 165.231 253.014 163.86 259.414 163.86C276.328 163.86 279.3 176.202 267.071 195.517C258.957 208.317 251.643 213.917 238.043 218.031C232.214 219.745 216.671 220.317 211.071 219.06Z" fill="black"/>
<path d="M387.071 220.596C374.271 217.51 364.557 209.282 357.7 195.567C353.7 187.682 352.328 176.71 354.728 172.253C358.5 165.396 366.957 162.882 373.128 166.996C374.842 168.024 377.357 171.11 378.957 173.853C385.357 184.824 398.614 192.596 407.871 190.882C411.414 190.31 414.271 188.024 422.728 179.453L433.242 168.71H439.185C446.042 168.71 450.957 171.224 452.9 175.796C457.128 186.082 443.185 209.51 428.785 216.482C416.442 222.31 400.785 223.91 387.071 220.596Z" fill="black"/>
<path d="M157.471 373.394C152.1 371.565 150.5 370.194 148.328 365.508C146.043 360.708 146.043 352.822 148.214 346.651C151.871 336.022 161.7 318.308 170.728 305.737C190.386 278.308 218.957 256.479 250.5 244.822C273.928 236.137 289.7 233.051 311.643 232.937C332.557 232.937 342.728 234.765 366.5 242.765C403.757 255.337 431.528 273.965 453.471 301.279C461.128 310.765 477.586 341.965 480.1 351.679C481.471 356.937 480.1 364.022 477.014 367.565C473.928 370.994 466.957 373.965 461.928 373.965C452.443 373.965 447.3 369.051 443.528 356.365C435.871 330.651 411.871 299.451 389.928 286.651C377.357 279.222 360.786 272.822 344.9 269.051C333.928 266.537 329.586 266.079 312.214 266.079C293.814 265.965 291.186 266.308 279.071 269.279C253.014 275.794 232.214 286.422 216.9 300.937C199.757 317.165 189.928 332.137 183.071 352.937C179.3 364.022 177.586 367.679 174.843 369.965C171.871 372.479 170.157 373.165 163.528 374.422C162.5 374.651 159.757 374.194 157.471 373.394Z" fill="black"/>
<path d="M456.526 234.499C444.161 241.133 442.523 263.663 442.248 280.883C442.069 292.074 438.658 310.626 447.844 317.838C453.92 322.608 465.005 325.864 470.568 319.317C476.39 312.465 474.801 300.974 473.18 291.169C471.424 280.537 466.806 270.217 463.559 260.285C461.942 255.341 460.181 250.493 458.53 245.564C457.308 241.917 457.51 237.354 456.066 234.017C454.754 230.986 453.216 233.62 451.678 235.018C447.753 238.587 447.809 242.845 447.513 249.531C447.138 258.038 445.677 268.825 446.586 277.299C446.597 277.403 448.916 270.378 448.989 270.075C450.667 263.154 451.624 255.85 453.259 248.915C455.601 238.982 449.791 269.473 448.877 280.04C448.663 282.515 448.765 285.03 449.84 281.396C452.432 272.631 453.781 262.934 454.642 253.345C454.89 250.587 455.51 241.105 454.368 250.787C453.397 259.009 452.688 267.318 451.756 275.551C451.707 275.982 451.4 277.163 451.382 276.719C451.307 274.931 451.468 272.641 451.585 270.991C452.097 263.769 452.929 256.659 453.032 249.338C453.133 242.134 454.013 263.824 454.724 271.052C455.232 276.206 454.967 268.764 454.982 268.371C455.289 259.759 455.909 251.132 455.605 242.427C455.322 234.314 454.385 258.364 453.717 266.317C452.828 276.904 452.568 279.66 451.817 289.677C451.664 291.725 451.53 293.777 451.387 295.828C451.351 296.34 451.335 297.885 451.279 297.365C451.219 296.803 451.337 296.252 451.373 295.696C451.863 288.101 452.581 280.529 452.738 272.858C452.875 266.209 452.098 265.497 450.993 272.249C449.964 278.535 448.695 284.859 448.136 291.333C448.094 291.809 448.068 293.248 448.156 292.79C448.38 291.616 448.458 290.377 448.584 289.161C449.096 284.201 449.294 279.183 449.657 274.183C449.971 269.845 449.182 285.259 449.151 285.982C449.032 288.783 447.681 300.244 449.156 302.967C449.956 304.445 449.772 299.548 450.058 297.828C451.09 291.606 452.166 285.405 453.189 279.179C454.222 272.893 453.533 283.642 453.533 283.654C453.306 290.072 453.034 296.494 452.595 302.864C452.413 305.507 453.65 297.854 454.246 295.388C454.976 292.366 455.639 283.07 456.356 286.271C457.861 292.991 457.837 313.901 457.853 307.011C457.873 297.933 457.567 288.846 457.245 279.74C457.102 275.714 456.003 253.827 457.314 270.642C457.877 277.878 458.681 285.091 459.455 292.309C460.099 298.315 459.753 292.937 459.693 290.293C459.479 281.001 457.705 253.121 458.7 262.399C459.071 265.861 464.14 297.958 464.742 297.581C465.548 297.075 463.153 282.643 463.096 282.231C462.422 277.315 460.617 262.807 460.264 267.672C459.752 274.728 463.827 296.046 463.948 288.907C464.069 281.789 461.249 272.101 458.751 265.843C458.415 265 459.139 267.695 459.451 268.555C460.252 270.765 460.775 272.109 461.527 274.371C462.066 275.99 462.461 280.844 462.966 279.325C464.034 276.117 460.05 257.803 462.395 273.15C463.777 282.191 466.234 291.084 466.847 300.275C467.007 302.673 462.415 306.484 461.322 308.033C458.466 312.078 457.537 308.735 455.044 304.526C452.756 300.663 447.962 290.365 449.071 302.18C450.313 315.398 455.042 318.344 462.76 312.125C467.709 308.137 470.352 302.478 469.375 293.368C469.054 290.373 468.091 281.386 468.412 284.381C469.309 292.746 471.006 300.951 471.899 309.287C472.863 318.276 463.501 317.32 459.352 314.216C455.054 311 451.12 307.636 449.124 300.98C448.511 298.935 448.825 296.562 448.211 294.576C447.519 292.34 444.397 303.651 444.575 305.98C445.114 313.021 448.48 312.825 452.674 311.216C456.812 309.627 462.642 306.051 465.301 301.104C467.612 296.805 465.653 296.49 462.883 297.183C459.882 297.933 462.717 297.773 463.59 293.192C465.075 285.409 464.758 275.684 462.551 267.825C461.767 265.034 456.128 253.651 460.167 253.218" stroke="#00AEFF" stroke-width="20" stroke-linecap="round"/>
</svg>
