<svg width="23" height="23" viewBox="0 0 23 23" fill="none" xmlns="http://www.w3.org/2000/svg">
<g clip-path="url(#clip0_149_213)">
<path fill-rule="evenodd" clip-rule="evenodd" d="M9.61825 0.630255C8.63254 0.438041 6.89111 0.137398 5.22854 0.0355408C4.42933 -0.0240687 3.6263 -0.00866808 2.82997 0.0815408C2.13997 0.173541 1.37768 0.377255 0.87661 0.876684C0.375538 1.37776 0.173467 2.14168 0.0814669 2.83168C-0.0086392 3.62747 -0.0240397 4.42995 0.035467 5.22861C0.137324 6.88954 0.437967 8.63261 0.630181 9.61833C0.764895 10.3083 1.0869 10.9326 1.54197 11.4468C4.51948 14.8066 7.6727 18.0064 10.9884 21.0329C12.4505 22.3669 14.6602 22.4458 16.2357 21.2892C17.1606 20.6107 18.1184 19.8714 18.9957 18.9958C19.8713 18.1185 20.6106 17.1607 21.2891 16.2358C22.4457 14.6586 22.3668 12.449 21.0328 10.9885C18.0063 7.67277 14.8065 4.51955 11.4468 1.54204C10.9301 1.07955 10.2985 0.764612 9.61825 0.630255Z" fill="#5F6060"/>
<path d="M7.2231 9.61808C8.75589 9.61808 9.61839 8.75558 9.61839 7.22279C9.61839 5.68836 8.75589 4.82422 7.22146 4.82422C5.68867 4.82422 4.82617 5.68836 4.82617 7.22279C4.82617 8.75558 5.68867 9.61808 7.22146 9.61808H7.2231Z" fill="#F0F1F2"/>
</g>
<defs>
<clipPath id="clip0_149_213">
<rect width="23" height="23" fill="white"/>
</clipPath>
</defs>
</svg>
