<svg width="20" height="20" viewBox="0 0 20 20" fill="none" xmlns="http://www.w3.org/2000/svg">
<g clip-path="url(#clip0_164_463)">
<path d="M8.57394 15.8705C13.1468 15.8705 15.7197 13.2991 15.7197 8.72482C15.7197 4.15053 13.1482 1.5791 8.57394 1.5791C4.00108 1.5791 1.42822 4.15053 1.42822 8.72482C1.42822 13.2977 3.99965 15.8705 8.57394 15.8705Z" fill="#F5F5F5"/>
<path fill-rule="evenodd" clip-rule="evenodd" d="M2.8713 8.58893C2.8713 6.56608 3.43559 5.18608 4.3113 4.31179C5.18559 3.43608 6.56559 2.87179 8.58845 2.87179C10.6127 2.87179 11.9913 3.43608 12.867 4.31179C13.7413 5.18608 14.3056 6.56608 14.3056 8.58893C14.3056 10.6132 13.7413 11.9918 12.867 12.8675C11.9913 13.7418 10.6127 14.3061 8.58845 14.3061C6.56559 14.3061 5.18559 13.7418 4.3113 12.8675C3.43559 11.9918 2.8713 10.6132 2.8713 8.58893ZM8.58845 0.0146484C6.03845 0.0146484 3.84559 0.736077 2.28987 2.29036C0.735589 3.84608 0.0141602 6.03893 0.0141602 8.59036C0.0141602 11.1389 0.735589 13.3332 2.28987 14.8875C3.84559 16.4418 6.03845 17.1632 8.58987 17.1632C10.5784 17.1632 12.3499 16.7246 13.7713 15.7918L17.5399 19.5604C17.8093 19.8206 18.1702 19.9646 18.5447 19.9613C18.9193 19.9581 19.2776 19.8078 19.5425 19.543C19.8073 19.2781 19.9576 18.9198 19.9608 18.5452C19.9641 18.1707 19.8201 17.8098 19.5599 17.5404L15.7927 13.7732C16.7242 12.3504 17.1642 10.5789 17.1642 8.58893C17.1642 6.03893 16.4413 3.84608 14.887 2.29036C13.3313 0.736077 11.1384 0.0146484 8.58845 0.0146484Z" fill="#666666"/>
</g>
<defs>
<clipPath id="clip0_164_463">
<rect width="20" height="20" fill="white"/>
</clipPath>
</defs>
</svg>
