<svg width="24" height="24" viewBox="0 0 24 24" fill="none" xmlns="http://www.w3.org/2000/svg">
<path fill-rule="evenodd" clip-rule="evenodd" d="M3.35792 9.93872C3.35792 7.60032 4.01379 6.00931 5.02696 5.00129C6.04016 3.99327 7.63936 3.34077 9.98977 3.34077C12.3402 3.34077 13.9393 3.99327 14.9525 5.00129C15.9657 6.00931 16.6216 7.60032 16.6216 9.93872C16.6216 12.2771 15.9657 13.8681 14.9525 14.8761C13.9393 15.8841 12.3402 16.5367 9.98977 16.5367C7.63936 16.5367 6.04016 15.8841 5.02696 14.8761C4.01379 13.8681 3.35792 12.2771 3.35792 9.93872ZM9.98977 0C7.02125 0 4.46505 0.835794 2.65255 2.63901C0.840084 4.44222 0 6.98539 0 9.93872C0 12.8921 0.840084 15.4351 2.65255 17.2385C4.46505 19.0416 7.02125 19.8775 9.98977 19.8775C12.2976 19.8775 14.3561 19.3723 16.01 18.3002L21.1339 23.5107C21.7896 24.1631 22.8527 24.1631 23.5084 23.5107C24.1639 22.8584 24.1639 21.8007 23.5082 21.1486L18.3863 15.9398C19.4694 14.2926 19.9795 12.2402 19.9795 9.93872C19.9795 6.98539 19.1394 4.44222 17.327 2.63901C15.5144 0.835794 12.9583 0 9.98977 0Z" fill="#0C098C"/>
</svg>
