<svg width="284" height="60" viewBox="0 0 284 60" fill="none" xmlns="http://www.w3.org/2000/svg">
<g clip-path="url(#clip0_531_626)">
<path d="M277.5 0.75H6C3.10051 0.75 0.75 3.10051 0.75 6V54C0.75 56.8995 3.10051 59.25 6 59.25H277.5C280.4 59.25 282.75 56.8995 282.75 54V6C282.75 3.10051 280.4 0.75 277.5 0.75Z" fill="white"/>
<mask id="mask0_531_626" style="mask-type:luminance" maskUnits="userSpaceOnUse" x="18" y="15" width="30" height="30">
<path d="M48 15H18V45H48V15Z" fill="white"/>
</mask>
<g mask="url(#mask0_531_626)">
<path d="M47.4 30.3407C47.4 29.2771 47.3046 28.2544 47.1273 27.2725H33V33.0748H41.0727C40.725 34.9498 39.6683 36.5384 38.0796 37.6021V41.3657H42.9273C45.7637 38.7544 47.4 34.9088 47.4 30.3407Z" fill="#4285F4"/>
<path d="M33 45.0006C37.05 45.0006 40.4454 43.6573 42.9271 41.3665L38.0794 37.6029C36.7363 38.5029 35.0181 39.0346 33 39.0346C29.0931 39.0346 25.7863 36.396 24.6067 32.8506H19.5954V36.7369C22.0636 41.6392 27.1363 45.0006 33 45.0006Z" fill="#34A853"/>
<path d="M24.6067 32.849C24.3067 31.949 24.1364 30.9877 24.1364 29.999C24.1364 29.0104 24.3067 28.049 24.6067 27.149V23.2627H19.5954C18.5796 25.2877 18 27.5786 18 29.999C18 32.4194 18.5796 34.7104 19.5954 36.7354L24.6067 32.849Z" fill="#FBBC04"/>
<path d="M33 20.9659C35.2021 20.9659 37.1794 21.7227 38.734 23.2091L43.0363 18.9067C40.4386 16.4863 37.0431 15 33 15C27.1363 15 22.0636 18.3614 19.5954 23.2636L24.6067 27.15C25.7863 23.6046 29.0931 20.9659 33 20.9659Z" fill="#E94235"/>
</g>
<path d="M73.3359 32.6397H75.8994C75.8174 33.6172 75.5439 34.4887 75.0791 35.2543C74.6142 36.0132 73.9614 36.6114 73.1207 37.0488C72.2798 37.4863 71.2578 37.705 70.0547 37.705C69.1319 37.705 68.3013 37.5409 67.563 37.2129C66.8247 36.8779 66.1925 36.4062 65.666 35.7978C65.1396 35.1827 64.7364 34.4409 64.4561 33.5727C64.1826 32.7046 64.046 31.7338 64.046 30.6606V29.42C64.046 28.3467 64.1861 27.376 64.4663 26.5078C64.7534 25.6396 65.1636 24.8979 65.6969 24.2827C66.23 23.6607 66.8691 23.1855 67.6143 22.8575C68.3663 22.5293 69.2105 22.3653 70.1469 22.3653C71.3364 22.3653 72.3413 22.584 73.1616 23.0216C73.982 23.459 74.6177 24.0639 75.0689 24.8364C75.5268 25.6089 75.8072 26.4942 75.9096 27.4922H73.3463C73.2779 26.8496 73.1274 26.2994 72.8951 25.8413C72.6695 25.3833 72.3345 25.0347 71.8902 24.7955C71.4458 24.5493 70.8648 24.4263 70.1469 24.4263C69.5591 24.4263 69.0464 24.5356 68.609 24.7543C68.1714 24.9732 67.8057 25.2945 67.5117 25.7183C67.2177 26.1422 66.9956 26.6651 66.8453 27.2871C66.7017 27.9024 66.6299 28.6065 66.6299 29.3994V30.6606C66.6299 31.4125 66.6948 32.0963 66.8247 32.7114C66.9615 33.3198 67.1666 33.8427 67.44 34.2803C67.7202 34.7178 68.0757 35.0562 68.5064 35.2955C68.937 35.5347 69.4532 35.6543 70.0547 35.6543C70.7862 35.6543 71.3775 35.5381 71.8286 35.3056C72.2867 35.0733 72.6318 34.7349 72.8643 34.2906C73.1036 33.8394 73.2608 33.289 73.3359 32.6397ZM77.5196 32.0757V31.8399C77.5196 31.0401 77.6358 30.2984 77.8682 29.6148C78.1007 28.9244 78.4356 28.3261 78.873 27.8203C79.3175 27.3076 79.8575 26.9112 80.4932 26.6309C81.1358 26.3438 81.8604 26.2002 82.667 26.2002C83.4804 26.2002 84.2051 26.3438 84.8408 26.6309C85.4834 26.9112 86.0268 27.3076 86.4713 27.8203C86.9156 28.3261 87.254 28.9244 87.4863 29.6148C87.7188 30.2984 87.8349 31.0401 87.8349 31.8399V32.0757C87.8349 32.8755 87.7188 33.6173 87.4863 34.3008C87.254 34.9844 86.9156 35.5825 86.4713 36.0952C86.0268 36.601 85.4868 36.9975 84.8511 37.2846C84.2154 37.5649 83.4942 37.705 82.6875 37.705C81.8741 37.705 81.146 37.5649 80.5034 37.2846C79.8677 36.9975 79.3277 36.601 78.8834 36.0952C78.4389 35.5825 78.1007 34.9844 77.8682 34.3008C77.6358 33.6173 77.5196 32.8755 77.5196 32.0757ZM79.9907 31.8399V32.0757C79.9907 32.5748 80.042 33.0464 80.1446 33.4907C80.247 33.9351 80.4077 34.3246 80.6265 34.6596C80.8452 34.9947 81.1256 35.2578 81.4673 35.4492C81.8091 35.6406 82.2158 35.7363 82.6875 35.7363C83.1455 35.7363 83.5421 35.6406 83.877 35.4492C84.2187 35.2578 84.4991 34.9947 84.7178 34.6596C84.9365 34.3246 85.0971 33.9351 85.1997 33.4907C85.3091 33.0464 85.3638 32.5748 85.3638 32.0757V31.8399C85.3638 31.3476 85.3091 30.8827 85.1997 30.4453C85.0971 30.001 84.9332 29.6079 84.7076 29.2661C84.4887 28.9244 84.2085 28.6577 83.8667 28.4663C83.5317 28.2681 83.1318 28.169 82.667 28.169C82.2021 28.169 81.7989 28.2681 81.4571 28.4663C81.1221 28.6577 80.8452 28.9244 80.6265 29.2661C80.4077 29.6079 80.247 30.001 80.1446 30.4453C80.042 30.8827 79.9907 31.3476 79.9907 31.8399ZM92.357 28.7739V37.5H89.8857V26.4053H92.2134L92.357 28.7739ZM91.916 31.5424L91.1162 31.5322C91.1231 30.7461 91.2324 30.0249 91.4444 29.3686C91.6631 28.7124 91.9638 28.1484 92.3468 27.6768C92.7363 27.2051 93.2012 26.8428 93.7412 26.5899C94.2813 26.3301 94.8828 26.2002 95.546 26.2002C96.0791 26.2002 96.561 26.2754 96.9917 26.4258C97.4292 26.5694 97.8018 26.8051 98.1093 27.1333C98.4239 27.4614 98.6631 27.8886 98.8272 28.4151C98.9912 28.9345 99.0732 29.5737 99.0732 30.3326V37.5H96.5918V30.3222C96.5918 29.7891 96.5132 29.3687 96.356 29.061C96.2055 28.7466 95.9834 28.5245 95.6895 28.3946C95.4024 28.2578 95.0435 28.1895 94.6128 28.1895C94.1889 28.1895 93.8096 28.2783 93.4746 28.456C93.1397 28.6338 92.856 28.8765 92.6235 29.1842C92.3979 29.4917 92.2236 29.8471 92.1006 30.2505C91.9776 30.6538 91.916 31.0845 91.916 31.5424ZM106.682 26.4053V28.2099H100.427V26.4053H106.682ZM102.231 23.688H104.703V34.4342C104.703 34.7759 104.751 35.0391 104.846 35.2236C104.949 35.4014 105.089 35.5211 105.267 35.5826C105.444 35.6441 105.653 35.6748 105.892 35.6748C106.063 35.6748 106.227 35.6646 106.384 35.644C106.542 35.6235 106.668 35.6031 106.764 35.5826L106.774 37.4692C106.569 37.5307 106.33 37.5855 106.056 37.6333C105.79 37.6812 105.482 37.705 105.133 37.705C104.566 37.705 104.064 37.6059 103.626 37.4077C103.188 37.2027 102.847 36.8711 102.601 36.4131C102.354 35.9552 102.231 35.3467 102.231 34.5879V23.688ZM111.234 26.4053V37.5H108.753V26.4053H111.234ZM108.589 23.4931C108.589 23.1172 108.712 22.8061 108.958 22.56C109.211 22.3071 109.56 22.1806 110.004 22.1806C110.441 22.1806 110.787 22.3071 111.04 22.56C111.293 22.8061 111.419 23.1172 111.419 23.4931C111.419 23.8623 111.293 24.1699 111.04 24.4159C110.787 24.6621 110.441 24.7851 110.004 24.7851C109.56 24.7851 109.211 24.6621 108.958 24.4159C108.712 24.1699 108.589 23.8623 108.589 23.4931ZM116.392 28.7739V37.5H113.921V26.4053H116.249L116.392 28.7739ZM115.951 31.5424L115.151 31.5322C115.158 30.7461 115.268 30.0249 115.479 29.3686C115.698 28.7124 115.999 28.1484 116.382 27.6768C116.772 27.2051 117.236 26.8428 117.776 26.5899C118.316 26.3301 118.918 26.2002 119.581 26.2002C120.114 26.2002 120.596 26.2754 121.027 26.4258C121.464 26.5694 121.837 26.8051 122.145 27.1333C122.459 27.4614 122.698 27.8886 122.862 28.4151C123.026 28.9345 123.108 29.5737 123.108 30.3326V37.5H120.627V30.3222C120.627 29.7891 120.548 29.3687 120.391 29.061C120.241 28.7466 120.019 28.5245 119.725 28.3946C119.438 28.2578 119.079 28.1895 118.648 28.1895C118.224 28.1895 117.845 28.2783 117.51 28.456C117.175 28.6338 116.891 28.8765 116.659 29.1842C116.433 29.4917 116.259 29.8471 116.136 30.2505C116.013 30.6538 115.951 31.0845 115.951 31.5424ZM132.306 34.8852V26.4053H134.788V37.5H132.45L132.306 34.8852ZM132.655 32.5782L133.485 32.5576C133.485 33.3027 133.403 33.9897 133.239 34.6186C133.075 35.2407 132.822 35.7842 132.48 36.249C132.139 36.7071 131.701 37.0659 131.168 37.3257C130.635 37.5786 129.996 37.705 129.251 37.705C128.711 37.705 128.215 37.6264 127.764 37.4692C127.313 37.312 126.923 37.0694 126.595 36.7412C126.273 36.4131 126.024 35.9859 125.846 35.4594C125.669 34.9331 125.58 34.3042 125.58 33.5727V26.4053H128.051V33.5933C128.051 33.9966 128.099 34.335 128.194 34.6084C128.29 34.875 128.42 35.0904 128.584 35.2543C128.748 35.4184 128.939 35.5347 129.158 35.6031C129.377 35.6713 129.609 35.7055 129.855 35.7055C130.56 35.7055 131.113 35.5689 131.517 35.2955C131.927 35.0151 132.217 34.6392 132.388 34.1674C132.566 33.6958 132.655 33.166 132.655 32.5782ZM142.211 37.705C141.391 37.705 140.649 37.5719 139.986 37.3052C139.33 37.0317 138.77 36.6523 138.305 36.1669C137.847 35.6817 137.495 35.1108 137.249 34.4545C137.003 33.7983 136.879 33.0908 136.879 32.3321V31.9218C136.879 31.0538 137.006 30.2676 137.259 29.5635C137.512 28.8594 137.864 28.2577 138.315 27.7588C138.766 27.2529 139.299 26.8667 139.915 26.6001C140.53 26.3336 141.196 26.2002 141.914 26.2002C142.707 26.2002 143.401 26.3336 143.996 26.6001C144.59 26.8667 145.083 27.2427 145.472 27.7281C145.869 28.2066 146.163 28.7774 146.354 29.4405C146.552 30.1035 146.651 30.8349 146.651 31.6347V32.6908H138.079V30.9169H144.211V30.7221C144.197 30.2778 144.108 29.8608 143.944 29.4712C143.787 29.0815 143.544 28.7672 143.216 28.5279C142.888 28.2885 142.451 28.169 141.904 28.169C141.494 28.169 141.128 28.2578 140.807 28.4355C140.492 28.6065 140.229 28.856 140.017 29.1842C139.805 29.5122 139.641 29.9087 139.525 30.3735C139.416 30.8316 139.361 31.3476 139.361 31.9218V32.3321C139.361 32.8175 139.426 33.2685 139.556 33.6855C139.692 34.0958 139.891 34.4546 140.15 34.7622C140.41 35.0699 140.725 35.3126 141.094 35.4903C141.463 35.6612 141.883 35.7467 142.355 35.7467C142.95 35.7467 143.48 35.627 143.944 35.3877C144.409 35.1485 144.813 34.8101 145.154 34.3725L146.457 35.6338C146.217 35.9824 145.906 36.3174 145.523 36.6387C145.141 36.9531 144.672 37.2094 144.119 37.4077C143.572 37.6059 142.936 37.705 142.211 37.705ZM156.824 35.0391L159.387 26.4053H160.967L160.535 28.9893L157.952 37.5H156.536L156.824 35.0391ZM155.316 26.4053L157.316 35.08L157.479 37.5H155.901L152.897 26.4053H155.316ZM163.365 34.9776L165.303 26.4053H167.714L164.718 37.5H163.14L163.365 34.9776ZM161.232 26.4053L163.766 34.9365L164.084 37.5H162.668L160.053 28.9789L159.623 26.4053H161.232ZM172.04 26.4053V37.5H169.559V26.4053H172.04ZM169.395 23.4931C169.395 23.1172 169.518 22.8061 169.764 22.56C170.016 22.3071 170.366 22.1806 170.81 22.1806C171.248 22.1806 171.593 22.3071 171.845 22.56C172.098 22.8061 172.224 23.1172 172.224 23.4931C172.224 23.8623 172.098 24.1699 171.845 24.4159C171.593 24.6621 171.248 24.7851 170.81 24.7851C170.366 24.7851 170.016 24.6621 169.764 24.4159C169.518 24.1699 169.395 23.8623 169.395 23.4931ZM179.834 26.4053V28.2099H173.579V26.4053H179.834ZM175.383 23.688H177.854V34.4342C177.854 34.7759 177.902 35.0391 177.998 35.2236C178.1 35.4014 178.241 35.5211 178.418 35.5826C178.596 35.6441 178.805 35.6748 179.043 35.6748C179.214 35.6748 179.379 35.6646 179.535 35.644C179.693 35.6235 179.82 35.6031 179.915 35.5826L179.925 37.4692C179.72 37.5307 179.481 37.5855 179.208 37.6333C178.941 37.6812 178.634 37.705 178.284 37.705C177.717 37.705 177.215 37.6059 176.778 37.4077C176.34 37.2027 175.998 36.8711 175.752 36.4131C175.506 35.9552 175.383 35.3467 175.383 34.5879V23.688ZM184.181 21.75V37.5H181.719V21.75H184.181ZM183.75 31.5424L182.951 31.5322C182.957 30.7666 183.063 30.0591 183.269 29.4096C183.48 28.7602 183.774 28.1963 184.151 27.7178C184.533 27.2324 184.991 26.8599 185.525 26.6001C186.057 26.3336 186.648 26.2002 187.298 26.2002C187.845 26.2002 188.337 26.2754 188.775 26.4258C189.219 26.5761 189.602 26.8188 189.923 27.1538C190.244 27.482 190.487 27.9126 190.652 28.4458C190.823 28.9722 190.907 29.6148 190.907 30.3735V37.5H188.426V30.3531C188.426 29.8198 188.348 29.3959 188.19 29.0815C188.04 28.7671 187.818 28.5416 187.524 28.4048C187.23 28.2612 186.87 28.1895 186.447 28.1895C186.003 28.1895 185.61 28.2783 185.268 28.456C184.932 28.6338 184.653 28.8765 184.427 29.1842C184.202 29.4917 184.031 29.8471 183.914 30.2505C183.804 30.6538 183.75 31.0845 183.75 31.5424ZM210.348 29.8712V35.5722C210.137 35.8525 209.805 36.1602 209.354 36.4951C208.91 36.8232 208.319 37.107 207.581 37.3462C206.843 37.5855 205.923 37.705 204.822 37.705C203.886 37.705 203.028 37.5478 202.248 37.2334C201.468 36.9121 200.796 36.4439 200.228 35.8286C199.668 35.2134 199.233 34.4649 198.926 33.5831C198.618 32.6943 198.465 31.6826 198.465 30.5478V29.5122C198.465 28.3844 198.605 27.3794 198.885 26.4975C199.172 25.6089 199.583 24.857 200.115 24.2417C200.649 23.6265 201.291 23.1616 202.043 22.8471C202.802 22.5259 203.66 22.3653 204.617 22.3653C205.841 22.3653 206.852 22.5704 207.653 22.9805C208.458 23.3838 209.081 23.9444 209.519 24.6621C209.955 25.3799 210.233 26.2002 210.348 27.123H207.827C207.744 26.6036 207.584 26.1387 207.344 25.7284C207.113 25.3183 206.777 24.997 206.34 24.7647C205.908 24.5254 205.349 24.4058 204.657 24.4058C204.063 24.4058 203.54 24.5185 203.09 24.7441C202.638 24.9697 202.262 25.3013 201.962 25.7388C201.668 26.1762 201.446 26.7094 201.294 27.3384C201.144 27.9673 201.069 28.6851 201.069 29.4917V30.5478C201.069 31.3682 201.155 32.0963 201.326 32.732C201.503 33.3677 201.756 33.9044 202.085 34.3418C202.419 34.7793 202.826 35.1108 203.304 35.3364C203.783 35.5553 204.323 35.6646 204.924 35.6646C205.512 35.6646 205.994 35.6168 206.37 35.5211C206.747 35.4185 207.044 35.2989 207.263 35.1621C207.488 35.0186 207.662 34.8819 207.785 34.752V31.7886H204.678V29.8712H210.348ZM212.481 32.0757V31.8399C212.481 31.0401 212.598 30.2984 212.831 29.6148C213.063 28.9244 213.398 28.3261 213.836 27.8203C214.28 27.3076 214.82 26.9112 215.456 26.6309C216.098 26.3438 216.822 26.2002 217.629 26.2002C218.442 26.2002 219.167 26.3438 219.803 26.6309C220.446 26.9112 220.989 27.3076 221.433 27.8203C221.877 28.3261 222.216 28.9244 222.449 29.6148C222.681 30.2984 222.797 31.0401 222.797 31.8399V32.0757C222.797 32.8755 222.681 33.6173 222.449 34.3008C222.216 34.9844 221.877 35.5825 221.433 36.0952C220.989 36.601 220.449 36.9975 219.813 37.2846C219.177 37.5649 218.456 37.705 217.65 37.705C216.836 37.705 216.108 37.5649 215.466 37.2846C214.83 36.9975 214.29 36.601 213.845 36.0952C213.401 35.5825 213.063 34.9844 212.831 34.3008C212.598 33.6173 212.481 32.8755 212.481 32.0757ZM214.953 31.8399V32.0757C214.953 32.5748 215.004 33.0464 215.106 33.4907C215.21 33.9351 215.37 34.3246 215.589 34.6596C215.807 34.9947 216.087 35.2578 216.429 35.4492C216.771 35.6406 217.178 35.7363 217.65 35.7363C218.108 35.7363 218.504 35.6406 218.84 35.4492C219.18 35.2578 219.461 34.9947 219.68 34.6596C219.899 34.3246 220.059 33.9351 220.161 33.4907C220.271 33.0464 220.326 32.5748 220.326 32.0757V31.8399C220.326 31.3476 220.271 30.8827 220.161 30.4453C220.059 30.001 219.896 29.6079 219.669 29.2661C219.45 28.9244 219.171 28.6577 218.829 28.4663C218.493 28.2681 218.094 28.169 217.629 28.169C217.164 28.169 216.761 28.2681 216.419 28.4663C216.084 28.6577 215.807 28.9244 215.589 29.2661C215.37 29.6079 215.21 30.001 215.106 30.4453C215.004 30.8827 214.953 31.3476 214.953 31.8399ZM224.397 32.0757V31.8399C224.397 31.0401 224.513 30.2984 224.745 29.6148C224.978 28.9244 225.312 28.3261 225.75 27.8203C226.194 27.3076 226.734 26.9112 227.37 26.6309C228.012 26.3438 228.738 26.2002 229.544 26.2002C230.358 26.2002 231.083 26.3438 231.719 26.6309C232.361 26.9112 232.904 27.3076 233.348 27.8203C233.793 28.3261 234.131 28.9244 234.363 29.6148C234.596 30.2984 234.713 31.0401 234.713 31.8399V32.0757C234.713 32.8755 234.596 33.6173 234.363 34.3008C234.131 34.9844 233.793 35.5825 233.348 36.0952C232.904 36.601 232.364 36.9975 231.728 37.2846C231.093 37.5649 230.372 37.705 229.565 37.705C228.752 37.705 228.023 37.5649 227.381 37.2846C226.745 36.9975 226.205 36.601 225.761 36.0952C225.317 35.5825 224.978 34.9844 224.745 34.3008C224.513 33.6173 224.397 32.8755 224.397 32.0757ZM226.868 31.8399V32.0757C226.868 32.5748 226.919 33.0464 227.022 33.4907C227.124 33.9351 227.285 34.3246 227.504 34.6596C227.723 34.9947 228.003 35.2578 228.344 35.4492C228.686 35.6406 229.094 35.7363 229.565 35.7363C230.022 35.7363 230.42 35.6406 230.754 35.4492C231.096 35.2578 231.377 34.9947 231.594 34.6596C231.813 34.3246 231.974 33.9351 232.077 33.4907C232.187 33.0464 232.241 32.5748 232.241 32.0757V31.8399C232.241 31.3476 232.187 30.8827 232.077 30.4453C231.974 30.001 231.81 29.6079 231.585 29.2661C231.366 28.9244 231.086 28.6577 230.744 28.4663C230.409 28.2681 230.009 28.169 229.544 28.169C229.079 28.169 228.677 28.2681 228.335 28.4663C227.999 28.6577 227.723 28.9244 227.504 29.2661C227.285 29.6079 227.124 30.001 227.022 30.4453C226.919 30.8827 226.868 31.3476 226.868 31.8399ZM243.89 26.4053H246.135V37.1924C246.135 38.1905 245.924 39.0381 245.499 39.7353C245.075 40.4327 244.484 40.9625 243.725 41.3247C242.967 41.6939 242.088 41.8783 241.091 41.8783C240.666 41.8783 240.195 41.8169 239.675 41.6939C239.162 41.5709 238.664 41.3726 238.178 41.0991C237.699 40.8326 237.3 40.4805 236.978 40.0429L238.137 38.5869C238.533 39.0586 238.971 39.4038 239.45 39.6225C239.928 39.8414 240.431 39.9507 240.957 39.9507C241.524 39.9507 242.006 39.8448 242.403 39.6328C242.805 39.4278 243.117 39.1236 243.336 38.7202C243.554 38.3169 243.663 37.8247 243.663 37.2436V28.9174L243.89 26.4053ZM236.352 32.0757V31.8603C236.352 31.0196 236.456 30.2539 236.66 29.5635C236.865 28.8661 237.159 28.2681 237.542 27.769C237.926 27.2632 238.389 26.877 238.937 26.6103C239.484 26.3369 240.102 26.2002 240.792 26.2002C241.511 26.2002 242.123 26.3301 242.628 26.5899C243.141 26.8496 243.569 27.2222 243.909 27.7076C244.251 28.1861 244.518 28.7603 244.71 29.4302C244.908 30.0933 245.055 30.8316 245.151 31.6451V32.3321C245.061 33.125 244.911 33.8496 244.7 34.5059C244.488 35.1621 244.208 35.7296 243.858 36.2081C243.51 36.6866 243.08 37.0557 242.567 37.3155C242.061 37.5752 241.463 37.705 240.773 37.705C240.095 37.705 239.484 37.5649 238.937 37.2846C238.397 37.0044 237.932 36.6114 237.542 36.1054C237.159 35.5996 236.865 35.0049 236.66 34.3213C236.456 33.6309 236.352 32.8823 236.352 32.0757ZM238.824 31.8603V32.0757C238.824 32.5815 238.872 33.0533 238.968 33.4907C239.07 33.9282 239.223 34.3144 239.429 34.6494C239.64 34.9776 239.907 35.2373 240.228 35.4287C240.557 35.6133 240.944 35.7055 241.388 35.7055C241.968 35.7055 242.444 35.5826 242.813 35.3364C243.189 35.0904 243.476 34.7588 243.674 34.3418C243.879 33.918 244.023 33.4463 244.104 32.9268V31.0708C244.064 30.6675 243.978 30.2915 243.848 29.9429C243.725 29.5943 243.558 29.2901 243.345 29.0303C243.134 28.7637 242.867 28.5586 242.546 28.4151C242.225 28.2646 241.845 28.1895 241.407 28.1895C240.963 28.1895 240.578 28.2852 240.249 28.4766C239.921 28.668 239.651 28.9311 239.439 29.2661C239.234 29.601 239.081 29.9907 238.977 30.435C238.875 30.8795 238.824 31.3545 238.824 31.8603ZM251.343 21.75V37.5H248.862V21.75H251.343ZM258.942 37.705C258.122 37.705 257.381 37.5719 256.718 37.3052C256.061 37.0317 255.5 36.6523 255.035 36.1669C254.577 35.6817 254.225 35.1108 253.979 34.4545C253.733 33.7983 253.61 33.0908 253.61 32.3321V31.9218C253.61 31.0538 253.737 30.2676 253.989 29.5635C254.243 28.8594 254.594 28.2577 255.045 27.7588C255.497 27.2529 256.031 26.8667 256.646 26.6001C257.261 26.3336 257.927 26.2002 258.645 26.2002C259.437 26.2002 260.132 26.3336 260.726 26.6001C261.321 26.8667 261.813 27.2427 262.203 27.7281C262.599 28.2066 262.893 28.7774 263.085 29.4405C263.283 30.1035 263.382 30.8349 263.382 31.6347V32.6908H254.81V30.9169H260.942V30.7221C260.928 30.2778 260.84 29.8608 260.675 29.4712C260.517 29.0815 260.276 28.7672 259.947 28.5279C259.619 28.2885 259.181 28.169 258.635 28.169C258.224 28.169 257.859 28.2578 257.537 28.4355C257.223 28.6065 256.959 28.856 256.748 29.1842C256.536 29.5122 256.371 29.9087 256.256 30.3735C256.146 30.8316 256.092 31.3476 256.092 31.9218V32.3321C256.092 32.8175 256.157 33.2685 256.286 33.6855C256.424 34.0958 256.622 34.4546 256.881 34.7622C257.141 35.0699 257.456 35.3126 257.825 35.4903C258.194 35.6612 258.614 35.7467 259.086 35.7467C259.68 35.7467 260.21 35.627 260.675 35.3877C261.14 35.1485 261.543 34.8101 261.885 34.3725L263.187 35.6338C262.949 35.9824 262.637 36.3174 262.254 36.6387C261.872 36.9531 261.404 37.2094 260.849 37.4077C260.303 37.6059 259.667 37.705 258.942 37.705Z" fill="#666666"/>
<path d="M277.5 0.75H6C3.10051 0.75 0.75 3.10051 0.75 6V54C0.75 56.8995 3.10051 59.25 6 59.25H277.5C280.4 59.25 282.75 56.8995 282.75 54V6C282.75 3.10051 280.4 0.75 277.5 0.75Z" stroke="#E1E3E1" stroke-width="1.5"/>
</g>
<defs>
<clipPath id="clip0_531_626">
<rect width="283.5" height="60" fill="white"/>
</clipPath>
</defs>
</svg>
